<?xml version="1.0" standalone="no"?>
<!DOCTYPE svg PUBLIC "-//W3C//DTD SVG 20010904//EN"
 "http://www.w3.org/TR/2001/REC-SVG-20010904/DTD/svg10.dtd">
<svg version="1.0" xmlns="http://www.w3.org/2000/svg"
 width="256.000000pt" height="256.000000pt" viewBox="0 0 256.000000 256.000000"
 preserveAspectRatio="xMidYMid meet">
<metadata>
Created by potrace 1.11, written by Peter Selinger 2001-2013
</metadata>
<g transform="translate(0.000000,256.000000) scale(0.100000,-0.100000)"
fill="#000000" stroke="none">
<path d="M1199 2263 c-287 -260 -509 -612 -649 -1033 -36 -109 -66 -215 -77
-269 -2 -14 -6 -28 -8 -32 -3 -4 -7 -24 -10 -45 -4 -22 -8 -46 -11 -55 -2 -9
-7 -32 -9 -50 -3 -19 -7 -43 -9 -54 -2 -12 -7 -48 -11 -80 -4 -33 -9 -69 -11
-80 -3 -11 -7 -92 -11 -179 l-6 -159 96 7 c52 3 102 8 109 11 7 2 27 6 43 9
116 17 293 90 414 171 66 43 152 121 204 183 l27 34 27 -34 c79 -97 206 -196
331 -258 138 -68 344 -119 476 -116 l59 1 -3 90 c-1 50 -3 106 -5 125 -8 98
-16 177 -20 195 -2 11 -7 43 -10 70 -6 41 -36 198 -49 255 -90 374 -252 728
-462 1007 -115 152 -308 343 -346 343 -8 0 -43 -26 -79 -57z m102 -455 c91
-107 216 -315 287 -480 69 -160 144 -393 166 -523 3 -16 10 -54 16 -84 16 -88
19 -85 -55 -78 -121 12 -249 60 -368 140 l-68 46 -47 -33 c-121 -87 -255 -140
-383 -152 l-71 -7 6 49 c4 27 9 56 11 64 2 8 7 30 10 47 40 240 168 574 304
798 40 65 162 234 169 235 2 0 12 -10 23 -22z"/>
</g>
</svg>
