<svg width="20" height="20" viewBox="0 0 20 20" fill="none" xmlns="http://www.w3.org/2000/svg">
<path d="M16.9989 8.23545C16.829 7.55275 16.5583 6.89918 16.1958 6.2963C15.9111 6.34359 15.623 6.36772 15.3344 6.36847C14.8689 6.36847 14.3032 6.29398 14.0029 5.99368C13.4093 5.40006 13.7026 3.80313 13.7026 3.80313C13.0992 3.44151 12.4458 3.17088 11.7634 3C11.7634 3 10.8323 4.33621 10.0012 4.33621C9.17015 4.33621 8.23667 3 8.23667 3C7.55431 3.17088 6.90089 3.44151 6.29752 3.80313C6.29752 3.80313 6.59084 5.40006 5.99723 5.99368C5.69693 6.29398 5.14288 6.36847 4.66566 6.36847C4.37708 6.36772 4.08902 6.34359 3.80434 6.2963C3.44176 6.89918 3.17109 7.55275 3.00122 8.23545C3.00122 8.23545 4.33743 9.16661 4.33743 10C4.33743 10.8334 3.00122 11.7622 3.00122 11.7622C3.17109 12.4449 3.44176 13.0985 3.80434 13.7014C4.08902 13.6541 4.37708 13.6299 4.66566 13.6292C5.14288 13.6292 5.69693 13.7037 5.99723 14.004C6.59084 14.5976 6.29752 16.1945 6.29752 16.1945C6.9008 16.5569 7.55421 16.8283 8.23667 17C8.23667 17 9.16782 15.6615 10.0012 15.6615C10.8346 15.6615 11.7634 17 11.7634 17C12.4459 16.8283 13.0993 16.5569 13.7026 16.1945C13.7026 16.1945 13.4093 14.5976 14.0029 14.004C14.3032 13.7037 14.8572 13.6292 15.3344 13.6292C15.623 13.6299 15.9111 13.6541 16.1958 13.7014C16.5583 13.0985 16.829 12.4449 16.9989 11.7622C16.9989 11.7622 15.6627 10.8311 15.6627 10C15.6627 9.16894 16.9989 8.23545 16.9989 8.23545ZM10.0012 12.1929C9.56638 12.1933 9.1412 12.0648 8.77946 11.8235C8.41772 11.5822 8.13568 11.239 7.96907 10.8374C7.80245 10.4357 7.75875 9.9937 7.84347 9.5672C7.92818 9.1407 8.13752 8.74891 8.44499 8.44144C8.75246 8.13397 9.14424 7.92463 9.57074 7.83991C9.99723 7.7552 10.4393 7.79892 10.8409 7.96553C11.2426 8.13215 11.5857 8.41417 11.827 8.77591C12.0683 9.13765 12.1969 9.56284 12.1964 9.99767C12.1964 10.5801 11.9652 11.1387 11.5536 11.5507C11.142 11.9628 10.5836 12.1946 10.0012 12.1952V12.1929Z" fill="#0C0B31"/>
<path fill-rule="evenodd" clip-rule="evenodd" d="M18 1H2C1.44772 1 1 1.44772 1 2V18C1 18.5523 1.44772 19 2 19H18C18.5523 19 19 18.5523 19 18V2C19 1.44772 18.5523 1 18 1ZM2 0C0.895431 0 0 0.895431 0 2V18C0 19.1046 0.895431 20 2 20H18C19.1046 20 20 19.1046 20 18V2C20 0.895431 19.1046 0 18 0H2Z" fill="#0C0B31"/>
</svg>
