<svg width="30" height="32" viewBox="0 0 30 32" fill="none" xmlns="http://www.w3.org/2000/svg">
<path fill-rule="evenodd" clip-rule="evenodd" d="M14.3864 22.667C15.3404 22.667 16.1294 21.961 16.1294 20.986C16.1294 20.012 15.3404 19.325 14.3864 19.325C13.4324 19.325 12.6434 20.012 12.6434 20.986C12.6434 21.961 13.4324 22.667 14.3864 22.667ZM13.0384 17.688H15.6314L15.6514 17.251C15.6514 16.588 16.1504 16.111 16.8964 15.488C17.8104 14.741 18.9704 13.87 18.9704 11.983C18.9704 9.556 17.1664 8 14.6764 8C12.2704 8 10.3634 9.431 10.3634 12.396H12.8934C12.9134 11.152 13.6394 10.593 14.5944 10.593C15.6314 10.593 16.1924 11.257 16.1924 12.086C16.2124 12.958 15.7764 13.331 15.0924 13.87C13.9094 14.762 13.0384 15.53 13.0384 17.211V17.688ZM29.3334 5.097V12.934C29.3334 21.148 23.1664 29.662 14.6664 32C6.16639 29.662 -0.000610352 21.148 -0.000610352 12.934V5.097L14.6664 0L29.3334 5.097Z" fill="#DB3615"/>
</svg>
