<?xml version="1.0" encoding="UTF-8"?>
<svg width="24px" height="24px" viewBox="0 0 24 24" version="1.1" xmlns="http://www.w3.org/2000/svg" xmlns:xlink="http://www.w3.org/1999/xlink">
    <!-- Generator: Sketch 50.2 (55047) - http://www.bohemiancoding.com/sketch -->
    <title>Dimension</title>
    <desc>Created with Sketch.</desc>
    <defs>
        <path d="M11.5527864,4.10557281 C11.8343139,3.96480906 12.1656861,3.96480906 12.4472136,4.10557281 L19.4472136,7.60557281 C20.1842621,7.97409708 20.1842621,9.02590292 19.4472136,9.39442719 L12.4472136,12.8944272 C12.1656861,13.0351909 11.8343139,13.0351909 11.5527864,12.8944272 L4.5527864,9.39442719 C3.81573787,9.02590292 3.81573787,7.97409708 4.5527864,7.60557281 L11.5527864,4.10557281 Z M12,6.11803399 L7.23606798,8.5 L12,10.881966 L16.763932,8.5 L12,6.11803399 Z M18.5527864,14.6055728 C19.0467649,14.3585836 19.6474379,14.5588079 19.8944272,15.0527864 C20.1414164,15.5467649 19.9411921,16.1474379 19.4472136,16.3944272 L12.4472136,19.8944272 C12.1656861,20.0351909 11.8343139,20.0351909 11.5527864,19.8944272 L4.5527864,16.3944272 C4.05880791,16.1474379 3.85858356,15.5467649 4.10557281,15.0527864 C4.35256206,14.5588079 4.9532351,14.3585836 5.4472136,14.6055728 L12,17.881966 L18.5527864,14.6055728 Z M18.5527864,11.1055728 C19.0467649,10.8585836 19.6474379,11.0588079 19.8944272,11.5527864 C20.1414164,12.0467649 19.9411921,12.6474379 19.4472136,12.8944272 L12.4472136,16.3944272 C12.1656861,16.5351909 11.8343139,16.5351909 11.5527864,16.3944272 L4.5527864,12.8944272 C4.05880791,12.6474379 3.85858356,12.0467649 4.10557281,11.5527864 C4.35256206,11.0588079 4.9532351,10.8585836 5.4472136,11.1055728 L12,14.381966 L18.5527864,11.1055728 Z" id="path-1"></path>
    </defs>
    <g id="Dimension" stroke="none" stroke-width="1" fill="none" fill-rule="evenodd">
        <mask id="mask-2" fill="white">
            <use xlink:href="#path-1"></use>
        </mask>
        <use id="Combined-Shape" fill="#11111F" fill-rule="nonzero" xlink:href="#path-1"></use>
        <g id="Tint/Black" mask="url(#mask-2)"></g>
    </g>
</svg>