<?xml version="1.0" encoding="UTF-8"?>
<svg width="24px" height="24px" viewBox="0 0 24 24" version="1.1" xmlns="http://www.w3.org/2000/svg" xmlns:xlink="http://www.w3.org/1999/xlink">
    <!-- Generator: Sketch 50.2 (55047) - http://www.bohemiancoding.com/sketch -->
    <title>Favorite-Filled</title>
    <desc>Created with Sketch.</desc>
    <defs>
        <path d="M12,18 L7.4472136,20.2763932 C6.9532351,20.5233825 6.35256206,20.3231581 6.10557281,19.8291796 C6.03614509,19.6903242 6,19.5372111 6,19.381966 L6,14 L2.93871978,10.1733997 C2.59371023,9.74213779 2.6636316,9.11284541 3.09489354,8.76783586 C3.19842229,8.68501287 3.31738718,8.62360366 3.44486746,8.58718073 L9,7 L11.1055728,2.78885438 C11.3525621,2.29487588 11.9532351,2.09465154 12.4472136,2.34164079 C12.640741,2.43840449 12.7976635,2.59532698 12.8944272,2.78885438 L15,7 L20.5551325,8.58718073 C21.0861676,8.73890502 21.3936597,9.29239079 21.2419354,9.8234258 C21.2055124,9.95090608 21.1441032,10.069871 21.0612802,10.1733997 L18,14 L18,19.381966 C18,19.9342508 17.5522847,20.381966 17,20.381966 C16.8447549,20.381966 16.6916418,20.3458209 16.5527864,20.2763932 L12,18 Z" id="path-1"></path>
    </defs>
    <g id="Favorite-Filled" stroke="none" stroke-width="1" fill="none" fill-rule="evenodd">
        <mask id="mask-2" fill="white">
            <use xlink:href="#path-1"></use>
        </mask>
        <use id="Favorite" fill="#11111F" fill-rule="nonzero" xlink:href="#path-1"></use>
        <g id="Tint/Black" mask="url(#mask-2)"></g>
    </g>
</svg>