<?xml version="1.0" encoding="UTF-8"?>
<svg width="24px" height="24px" viewBox="0 0 24 24" version="1.1" xmlns="http://www.w3.org/2000/svg" xmlns:xlink="http://www.w3.org/1999/xlink">
    <!-- Generator: Sketch 50.2 (55047) - http://www.bohemiancoding.com/sketch -->
    <title>Loader</title>
    <desc>Created with Sketch.</desc>
    <defs>
        <path d="M10,1 C10,0.44771525 10.4477153,0 11,0 C11.5522847,0 12,0.44771525 12,1 L12,5 C12,5.55228475 11.5522847,6 11,6 C10.4477153,6 10,5.55228475 10,5 L10,1 Z M10,17 C10,16.4477153 10.4477153,16 11,16 C11.5522847,16 12,16.4477153 12,17 L12,21 C12,21.5522847 11.5522847,22 11,22 C10.4477153,22 10,21.5522847 10,21 L10,17 Z M3.22289322,4.63710678 C2.83236893,4.24658249 2.83236893,3.61341751 3.22289322,3.22289322 C3.61341751,2.83236893 4.24658249,2.83236893 4.63710678,3.22289322 L7.46710678,6.05289322 C7.85763107,6.44341751 7.85763107,7.07658249 7.46710678,7.46710678 C7.07658249,7.85763107 6.44341751,7.85763107 6.05289322,7.46710678 L3.22289322,4.63710678 Z M14.5328932,15.9471068 C14.1423689,15.5565825 14.1423689,14.9234175 14.5328932,14.5328932 C14.9234175,14.1423689 15.5565825,14.1423689 15.9471068,14.5328932 L18.7771068,17.3628932 C19.1676311,17.7534175 19.1676311,18.3865825 18.7771068,18.7771068 C18.3865825,19.1676311 17.7534175,19.1676311 17.3628932,18.7771068 L14.5328932,15.9471068 Z M1,12 C0.44771525,12 0,11.5522847 0,11 C0,10.4477153 0.44771525,10 1,10 L5,10 C5.55228475,10 6,10.4477153 6,11 C6,11.5522847 5.55228475,12 5,12 L1,12 Z M17,12 C16.4477153,12 16,11.5522847 16,11 C16,10.4477153 16.4477153,10 17,10 L21,10 C21.5522847,10 22,10.4477153 22,11 C22,11.5522847 21.5522847,12 21,12 L17,12 Z M4.63710678,18.7771068 C4.24658249,19.1676311 3.61341751,19.1676311 3.22289322,18.7771068 C2.83236893,18.3865825 2.83236893,17.7534175 3.22289322,17.3628932 L6.05289322,14.5328932 C6.44341751,14.1423689 7.07658249,14.1423689 7.46710678,14.5328932 C7.85763107,14.9234175 7.85763107,15.5565825 7.46710678,15.9471068 L4.63710678,18.7771068 Z M15.9471068,7.46710678 C15.5565825,7.85763107 14.9234175,7.85763107 14.5328932,7.46710678 C14.1423689,7.07658249 14.1423689,6.44341751 14.5328932,6.05289322 L17.3628932,3.22289322 C17.7534175,2.83236893 18.3865825,2.83236893 18.7771068,3.22289322 C19.1676311,3.61341751 19.1676311,4.24658249 18.7771068,4.63710678 L15.9471068,7.46710678 Z" id="path-1"></path>
    </defs>
    <g id="Loader" stroke="none" stroke-width="1" fill="none" fill-rule="evenodd">
        <g id="loader" transform="translate(1.000000, 1.000000)">
            <g id="Shape-+-Shape-+-Shape-+-Shape-+-Shape-+-Shape-+-Shape-Mask">
                <mask id="mask-2" fill="white">
                    <use xlink:href="#path-1"></use>
                </mask>
                <use id="Combined-Shape" fill="#000000" fill-rule="nonzero" xlink:href="#path-1"></use>
                <g id="Tint/Black" mask="url(#mask-2)">
                    <g transform="translate(-1.000000, -1.000000)"></g>
                </g>
                <g mask="url(#mask-2)" fill="#000000" fill-rule="nonzero" stroke="#FFFFFF" stroke-width="2">
                    <path d="M10,1 C10,0.44771525 10.4477153,0 11,0 C11.5522847,0 12,0.44771525 12,1 L12,5 C12,5.55228475 11.5522847,6 11,6 C10.4477153,6 10,5.55228475 10,5 L10,1 Z" id="Mask" opacity="0.200000003"></path>
                    <path d="M10,17 C10,16.4477153 10.4477153,16 11,16 C11.5522847,16 12,16.4477153 12,17 L12,21 C12,21.5522847 11.5522847,22 11,22 C10.4477153,22 10,21.5522847 10,21 L10,17 Z" id="Shape" opacity="0.600000024"></path>
                    <path d="M3.22289322,4.63710678 C2.83236893,4.24658249 2.83236893,3.61341751 3.22289322,3.22289322 C3.61341751,2.83236893 4.24658249,2.83236893 4.63710678,3.22289322 L7.46710678,6.05289322 C7.85763107,6.44341751 7.85763107,7.07658249 7.46710678,7.46710678 C7.07658249,7.85763107 6.44341751,7.85763107 6.05289322,7.46710678 L3.22289322,4.63710678 Z" id="Shape" opacity="0.300000012"></path>
                    <path d="M14.5328932,15.9471068 C14.1423689,15.5565825 14.1423689,14.9234175 14.5328932,14.5328932 C14.9234175,14.1423689 15.5565825,14.1423689 15.9471068,14.5328932 L18.7771068,17.3628932 C19.1676311,17.7534175 19.1676311,18.3865825 18.7771068,18.7771068 C18.3865825,19.1676311 17.7534175,19.1676311 17.3628932,18.7771068 L14.5328932,15.9471068 Z" id="Shape" opacity="0.699999988"></path>
                    <path d="M1,12 C0.44771525,12 0,11.5522847 0,11 C0,10.4477153 0.44771525,10 1,10 L5,10 C5.55228475,10 6,10.4477153 6,11 C6,11.5522847 5.55228475,12 5,12 L1,12 Z" id="Shape" opacity="0.400000006"></path>
                    <path d="M17,12 C16.4477153,12 16,11.5522847 16,11 C16,10.4477153 16.4477153,10 17,10 L21,10 C21.5522847,10 22,10.4477153 22,11 C22,11.5522847 21.5522847,12 21,12 L17,12 Z" id="Shape" opacity="0.800000012"></path>
                    <path d="M4.63710678,18.7771068 C4.24658249,19.1676311 3.61341751,19.1676311 3.22289322,18.7771068 C2.83236893,18.3865825 2.83236893,17.7534175 3.22289322,17.3628932 L6.05289322,14.5328932 C6.44341751,14.1423689 7.07658249,14.1423689 7.46710678,14.5328932 C7.85763107,14.9234175 7.85763107,15.5565825 7.46710678,15.9471068 L4.63710678,18.7771068 Z" id="Shape" opacity="0.5"></path>
                    <path d="M15.9471068,7.46710678 C15.5565825,7.85763107 14.9234175,7.85763107 14.5328932,7.46710678 C14.1423689,7.07658249 14.1423689,6.44341751 14.5328932,6.05289322 L17.3628932,3.22289322 C17.7534175,2.83236893 18.3865825,2.83236893 18.7771068,3.22289322 C19.1676311,3.61341751 19.1676311,4.24658249 18.7771068,4.63710678 L15.9471068,7.46710678 Z" id="Shape" opacity="0.100000001"></path>
                </g>
            </g>
        </g>
    </g>
</svg>