<?xml version="1.0" encoding="UTF-8"?>
<svg xmlns="http://www.w3.org/2000/svg" xmlns:xlink="http://www.w3.org/1999/xlink" width="24px" height="24px" viewBox="0 0 24 24" version="1.1">
<defs>
<linearGradient id="linear0" gradientUnits="userSpaceOnUse" x1="63.9997" y1="7.0336" x2="63.9997" y2="120.7894" gradientTransform="matrix(0.1875,0,0,0.1875,0,0)">
<stop offset="0" style="stop-color:rgb(26.27451%,52.941176%,99.215686%);stop-opacity:1;"/>
<stop offset="1" style="stop-color:rgb(27.45098%,51.372549%,91.764706%);stop-opacity:1;"/>
</linearGradient>
<clipPath id="clip1">
  <path d="M 0 1 L 24 1 L 24 23 L 0 23 Z M 0 1 "/>
</clipPath>
<clipPath id="clip2">
  <path d="M 5.210938 21.601562 L 0.289062 13.078125 C -0.0976562 12.410156 -0.0976562 11.589844 0.289062 10.921875 L 5.210938 2.398438 C 5.597656 1.730469 6.308594 1.320312 7.078125 1.320312 L 16.921875 1.320312 C 17.691406 1.320312 18.402344 1.730469 18.789062 2.398438 L 23.710938 10.921875 C 24.097656 11.589844 24.097656 12.410156 23.710938 13.078125 L 18.789062 21.601562 C 18.402344 22.269531 17.691406 22.679688 16.921875 22.679688 L 7.078125 22.679688 C 6.308594 22.679688 5.597656 22.269531 5.210938 21.601562 Z M 5.210938 21.601562 "/>
</clipPath>
<filter id="alpha" filterUnits="objectBoundingBox" x="0%" y="0%" width="100%" height="100%">
  <feColorMatrix type="matrix" in="SourceGraphic" values="0 0 0 0 1 0 0 0 0 1 0 0 0 0 1 0 0 0 1 0"/>
</filter>
<mask id="mask0">
  <g filter="url(#alpha)">
<rect x="0" y="0" width="24" height="24" style="fill:rgb(0%,0%,0%);fill-opacity:0.0705882;stroke:none;"/>
  </g>
</mask>
<clipPath id="clip3">
  <rect x="0" y="0" width="24" height="24"/>
</clipPath>
<g id="surface5" clip-path="url(#clip3)">
<path style=" stroke:none;fill-rule:nonzero;fill:rgb(0%,0%,0%);fill-opacity:1;" d="M 22.355469 16.214844 L 15.117188 8.976562 L 12 8.140625 L 9.199219 9.183594 L 8.117188 12 L 8.988281 15.136719 L 16.664062 22.8125 L 18.292969 22.738281 Z M 22.355469 16.214844 "/>
</g>
</defs>
<g id="surface1">
<path style=" stroke:none;fill-rule:nonzero;fill:url(#linear0);" d="M 5.210938 21.601562 L 0.289062 13.078125 C -0.0976562 12.410156 -0.0976562 11.589844 0.289062 10.921875 L 5.210938 2.398438 C 5.597656 1.730469 6.308594 1.320312 7.078125 1.320312 L 16.921875 1.320312 C 17.691406 1.320312 18.402344 1.730469 18.789062 2.398438 L 23.710938 10.921875 C 24.097656 11.589844 24.097656 12.410156 23.710938 13.078125 L 18.789062 21.601562 C 18.402344 22.269531 17.691406 22.679688 16.921875 22.679688 L 7.078125 22.679688 C 6.308594 22.679688 5.597656 22.269531 5.210938 21.601562 Z M 5.210938 21.601562 "/>
<g clip-path="url(#clip1)" clip-rule="nonzero">
<g clip-path="url(#clip2)" clip-rule="nonzero">
<use xlink:href="#surface5" mask="url(#mask0)"/>
</g>
</g>
<path style=" stroke:none;fill-rule:nonzero;fill:rgb(100%,100%,100%);fill-opacity:1;" d="M 12 7.652344 C 9.597656 7.652344 7.652344 9.597656 7.652344 12 C 7.652344 14.402344 9.597656 16.347656 12 16.347656 C 14.402344 16.347656 16.347656 14.402344 16.347656 12 C 16.347656 9.597656 14.402344 7.652344 12 7.652344 M 12 15.300781 C 10.175781 15.300781 8.699219 13.824219 8.699219 12 C 8.699219 10.175781 10.175781 8.699219 12 8.699219 C 13.824219 8.699219 15.300781 10.175781 15.300781 12 C 15.300781 13.824219 13.824219 15.300781 12 15.300781 "/>
<path style=" stroke:none;fill-rule:nonzero;fill:rgb(100%,100%,100%);fill-opacity:1;" d="M 9.9375 11.832031 L 9.9375 13.183594 C 10.136719 13.527344 10.417969 13.816406 10.757812 14.023438 L 10.757812 11.832031 Z M 9.9375 11.832031 "/>
<path style=" stroke:none;fill-rule:nonzero;fill:rgb(100%,100%,100%);fill-opacity:1;" d="M 11.5625 10.691406 L 11.5625 14.332031 C 11.703125 14.359375 11.847656 14.375 11.992188 14.375 C 12.128906 14.375 12.257812 14.359375 12.386719 14.335938 L 12.386719 10.691406 Z M 11.5625 10.691406 "/>
<path style=" stroke:none;fill-rule:nonzero;fill:rgb(100%,100%,100%);fill-opacity:1;" d="M 13.269531 12.394531 L 13.269531 14 C 13.613281 13.78125 13.894531 13.476562 14.089844 13.117188 L 14.089844 12.394531 Z M 13.269531 12.394531 "/>
<path style=" stroke:none;fill-rule:nonzero;fill:rgb(100%,100%,100%);fill-opacity:1;" d="M 15.128906 14.679688 L 14.679688 15.128906 C 14.597656 15.207031 14.597656 15.339844 14.679688 15.417969 L 16.386719 17.125 C 16.46875 17.207031 16.597656 17.207031 16.675781 17.125 L 17.125 16.675781 C 17.207031 16.597656 17.207031 16.46875 17.125 16.386719 L 15.417969 14.679688 C 15.339844 14.601562 15.207031 14.601562 15.128906 14.679688 "/>
</g>
</svg>
