<?xml version="1.0" standalone="no"?>
<!DOCTYPE svg PUBLIC "-//W3C//DTD SVG 20010904//EN"
 "http://www.w3.org/TR/2001/REC-SVG-20010904/DTD/svg10.dtd">
<svg version="1.0" xmlns="http://www.w3.org/2000/svg"
 width="122.000000pt" height="122.000000pt" viewBox="0 0 122.000000 122.000000"
 preserveAspectRatio="xMidYMid meet">

<g transform="translate(0.000000,122.000000) scale(0.100000,-0.100000)"
fill="#000000" stroke="none">
<path d="M580 1204 c0 -11 44 -84 50 -84 9 0 -33 89 -42 90 -5 0 -8 -3 -8 -6z"/>
<path d="M508 1155 c2 -25 7 -43 11 -41 8 6 1 86 -8 86 -3 0 -5 -20 -3 -45z"/>
<path d="M664 1186 c-3 -8 -4 -27 -2 -43 3 -23 5 -20 9 15 5 43 2 53 -7 28z"/>
<path d="M742 1153 c-6 -20 -9 -39 -6 -42 3 -3 7 5 11 17 3 12 8 20 12 18 3
-2 6 7 6 20 0 35 -10 29 -23 -13z"/>
<path d="M786 1156 c-3 -13 -9 -32 -12 -43 -5 -12 -4 -15 3 -8 11 10 28 75 20
75 -3 0 -8 -11 -11 -24z"/>
<path d="M402 1138 c6 -18 15 -37 21 -43 7 -7 7 -3 2 10 -4 11 -10 30 -12 43
-3 12 -9 22 -14 22 -4 0 -3 -15 3 -32z"/>
<path d="M444 1135 c9 -30 12 -32 14 -15 2 13 -3 29 -11 37 -13 13 -13 10 -3
-22z"/>
<path d="M851 1130 c-1 -8 -4 -26 -7 -40 -5 -22 -4 -23 6 -7 6 10 9 28 7 40
-2 12 -5 15 -6 7z"/>
<path d="M310 1126 c0 -2 18 -13 40 -25 22 -11 37 -15 34 -8 -6 17 -74 47 -74
33z"/>
<path d="M910 1079 c0 -59 10 -60 17 0 3 22 0 42 -6 46 -7 4 -11 -11 -11 -46z"/>
<path d="M518 1083 c6 -2 18 -2 25 0 6 3 1 5 -13 5 -14 0 -19 -2 -12 -5z"/>
<path d="M668 1083 c6 -2 18 -2 25 0 6 3 1 5 -13 5 -14 0 -19 -2 -12 -5z"/>
<path d="M295 1056 c17 -13 32 -22 35 -19 6 5 -41 42 -55 43 -5 0 4 -11 20
-24z"/>
<path d="M478 1073 c7 -3 16 -2 19 1 4 3 -2 6 -13 5 -11 0 -14 -3 -6 -6z"/>
<path d="M430 1060 c-8 -5 -10 -10 -5 -10 6 0 17 5 25 10 8 5 11 10 5 10 -5 0
-17 -5 -25 -10z"/>
<path d="M832 1028 c53 -28 138 -107 181 -168 17 -24 17 -23 0 8 -26 50 -107
128 -166 162 -29 16 -56 30 -62 30 -5 0 16 -15 47 -32z"/>
<path d="M950 1041 c-5 -11 -10 -26 -10 -33 0 -7 6 -4 12 7 6 11 18 26 26 33
14 11 14 12 -1 12 -9 0 -21 -9 -27 -19z"/>
<path d="M339 1009 l-24 -20 28 17 c15 9 27 18 27 20 0 8 -8 4 -31 -17z"/>
<path d="M200 1001 c-23 -7 -22 -8 12 -12 29 -4 35 -2 26 8 -6 7 -11 13 -12
12 0 -1 -12 -4 -26 -8z"/>
<path d="M972 994 c-7 -8 -8 -14 -3 -14 10 0 25 19 20 25 -2 1 -10 -3 -17 -11z"/>
<path d="M1019 980 c-19 -16 -29 -29 -22 -30 6 0 15 5 18 11 4 6 14 8 22 5 8
-4 11 -2 7 5 -4 6 0 15 7 20 7 4 11 10 8 13 -3 3 -21 -8 -40 -24z"/>
<path d="M269 953 c-34 -36 -74 -89 -53 -68 24 23 96 105 92 105 -2 0 -20 -17
-39 -37z"/>
<path d="M145 935 c17 -13 37 -24 45 -25 8 0 -2 11 -22 25 -47 32 -62 32 -23
0z"/>
<path d="M115 905 c30 -25 55 -37 55 -27 0 5 -12 15 -27 23 -43 21 -50 22 -28
4z"/>
<path d="M1059 888 c-11 -22 -11 -22 7 -7 10 9 26 19 34 22 10 4 8 6 -7 6 -13
1 -27 -8 -34 -21z"/>
<path d="M70 862 c0 -5 18 -16 40 -25 51 -20 51 -13 0 13 -22 11 -40 16 -40
12z"/>
<path d="M180 829 c-12 -23 -20 -43 -18 -45 3 -2 14 17 26 41 27 56 20 60 -8
4z"/>
<path d="M1099 823 c-11 -13 -11 -15 -1 -9 8 5 26 12 40 16 l27 8 -26 1 c-15
1 -33 -7 -40 -16z"/>
<path d="M313 814 c0 -7 4 -11 9 -8 5 4 16 -2 23 -12 13 -18 14 -18 9 3 -6 23
-41 38 -41 17z"/>
<path d="M852 808 c2 -16 6 -24 11 -19 5 5 5 17 -2 28 -9 16 -10 15 -9 -9z"/>
<path d="M414 793 c3 -20 1 -33 -7 -36 -7 -2 -3 -9 11 -16 26 -14 27 -9 6 44
-13 36 -14 37 -10 8z"/>
<path d="M50 801 c0 -5 11 -12 24 -15 13 -3 32 -9 43 -12 12 -5 15 -4 8 3 -14
15 -75 34 -75 24z"/>
<path d="M1040 805 c0 -5 5 -17 10 -25 5 -8 10 -10 10 -5 0 6 -5 17 -10 25 -5
8 -10 11 -10 5z"/>
<path d="M1125 785 c-24 -11 -26 -14 -9 -15 11 0 29 7 40 15 24 18 9 18 -31 0z"/>
<path d="M780 761 c-12 -24 -13 -68 -1 -75 4 -3 13 6 19 19 10 21 9 23 -6 18
-9 -3 -5 3 10 14 26 18 26 19 8 31 -16 10 -21 9 -30 -7z"/>
<path d="M555 760 c3 -5 12 -7 20 -3 21 7 19 13 -6 13 -11 0 -18 -4 -14 -10z"/>
<path d="M59 744 c18 -13 27 -14 44 -5 21 11 20 11 -5 6 -16 -3 -28 -1 -28 5
0 5 -8 10 -17 10 -14 0 -13 -3 6 -16z"/>
<path d="M1061 744 c0 -11 3 -14 6 -6 3 7 2 16 -1 19 -3 4 -6 -2 -5 -13z"/>
<path d="M1150 734 c-19 -13 -28 -24 -20 -24 17 0 67 36 60 43 -3 3 -21 -6
-40 -19z"/>
<path d="M141 724 c0 -11 3 -14 6 -6 3 7 2 16 -1 19 -3 4 -6 -2 -5 -13z"/>
<path d="M25 721 c-2 -4 1 -8 8 -8 7 0 28 -3 47 -8 19 -4 32 -4 28 0 -10 11
-78 24 -83 16z"/>
<path d="M425 710 c-3 -5 -1 -10 4 -10 6 0 11 5 11 10 0 6 -2 10 -4 10 -3 0
-8 -4 -11 -10z"/>
<path d="M1072 700 c0 -14 2 -19 5 -12 2 6 2 18 0 25 -3 6 -5 1 -5 -13z"/>
<path d="M1148 693 c-16 -2 -28 -8 -28 -13 0 -8 67 4 77 14 7 6 -2 6 -49 -1z"/>
<path d="M133 615 c0 -44 2 -61 4 -37 2 23 2 59 0 80 -2 20 -4 1 -4 -43z"/>
<path d="M373 665 c0 -8 4 -12 9 -9 5 3 6 10 3 15 -9 13 -12 11 -12 -6z"/>
<path d="M780 660 c0 -5 5 -10 11 -10 5 0 7 5 4 10 -3 6 -8 10 -11 10 -2 0 -4
-4 -4 -10z"/>
<path d="M1083 615 c0 -22 2 -30 4 -17 2 12 2 30 0 40 -3 9 -5 -1 -4 -23z"/>
<path d="M1171 634 c-18 -8 -31 -17 -29 -20 7 -7 68 17 68 27 0 5 -1 9 -2 8
-2 0 -18 -7 -37 -15z"/>
<path d="M38 633 c12 -2 32 -2 45 0 12 2 2 4 -23 4 -25 0 -35 -2 -22 -4z"/>
<path d="M760 620 c-6 -11 -22 -23 -35 -26 -14 -3 -25 -10 -25 -15 0 -5 11 -4
24 1 13 5 26 7 29 4 2 -2 10 2 17 11 7 8 9 15 5 15 -4 0 -2 7 5 15 8 10 9 15
2 15 -6 0 -16 -9 -22 -20z"/>
<path d="M440 622 c0 -13 20 -28 48 -36 13 -5 22 -3 22 3 0 6 -3 10 -7 10 -19
-3 -33 2 -47 17 -9 8 -16 11 -16 6z"/>
<path d="M856 613 c-6 -14 -5 -15 5 -6 7 7 10 15 7 18 -3 3 -9 -2 -12 -12z"/>
<path d="M975 599 c-4 -6 -5 -13 -2 -16 7 -7 27 6 27 18 0 12 -17 12 -25 -2z"/>
<path d="M408 593 c6 -2 9 -10 6 -15 -4 -7 -2 -8 5 -4 13 9 5 26 -12 25 -9 0
-8 -2 1 -6z"/>
<path d="M775 580 c-3 -5 -20 -13 -37 -18 -18 -4 -33 -13 -34 -20 -1 -7 0 -8
3 -2 2 5 15 10 27 10 13 0 31 9 41 20 10 11 15 20 12 20 -3 0 -9 -4 -12 -10z"/>
<path d="M932 578 c-7 -7 -12 -18 -12 -26 0 -7 -4 -11 -9 -8 -5 3 -14 -1 -21
-10 -7 -8 -20 -12 -29 -9 -12 5 -13 3 -5 -5 9 -9 8 -18 -2 -38 -8 -15 -14 -33
-14 -39 0 -7 -18 -25 -40 -39 -22 -15 -40 -29 -40 -31 0 -2 5 -1 10 2 16 10
12 -11 -5 -25 -8 -7 -12 -17 -8 -23 3 -6 1 -7 -5 -3 -6 4 -9 13 -5 21 3 8 0
15 -6 15 -18 0 -12 -28 11 -50 24 -22 38 -26 38 -9 0 5 -4 8 -9 4 -21 -12 -19
13 2 33 22 21 23 21 24 2 1 -11 -2 -18 -7 -15 -4 3 -6 -4 -3 -16 4 -13 9 -17
16 -10 9 9 12 21 21 91 2 17 18 35 49 55 26 17 47 36 47 43 0 6 7 12 16 12 14
0 14 2 3 16 -17 21 -20 45 -7 61 13 16 6 17 -10 1z m-32 -67 c0 -6 -4 -13 -10
-16 -5 -3 -10 1 -10 9 0 9 5 16 10 16 6 0 10 -4 10 -9z m30 5 c0 -3 -4 -8 -10
-11 -5 -3 -10 -1 -10 4 0 6 5 11 10 11 6 0 10 -2 10 -4z"/>
<path d="M1125 585 c23 -8 85 -10 85 -3 0 4 -21 8 -47 7 -27 0 -43 -2 -38 -4z"/>
<path d="M87 563 c-4 -3 -21 -6 -39 -5 -23 1 -28 -2 -18 -8 8 -6 22 -10 30
-10 19 0 46 17 39 24 -3 4 -9 3 -12 -1z"/>
<path d="M438 563 c6 -2 9 -10 6 -15 -4 -7 -2 -8 5 -4 13 9 5 26 -12 25 -9 0
-8 -2 1 -6z"/>
<path d="M497 563 c-4 -3 -7 -11 -7 -17 0 -6 5 -5 12 2 6 6 9 14 7 17 -3 3 -9
2 -12 -2z"/>
<path d="M949 565 c0 0 -2 -8 -4 -17 -2 -9 4 -19 12 -22 11 -4 13 -2 10 9 -4
8 1 19 11 24 15 9 14 10 -5 8 -13 -1 -23 -1 -24 -2z"/>
<path d="M520 551 c0 -6 5 -13 10 -16 6 -3 10 1 10 9 0 9 -4 16 -10 16 -5 0
-10 -4 -10 -9z"/>
<path d="M548 484 c-2 -52 1 -83 10 -95 7 -11 11 -23 8 -27 -3 -5 1 -9 9 -9 8
0 12 4 9 9 -3 4 0 8 6 8 6 0 10 -8 9 -17 -1 -10 0 -27 0 -38 2 -18 3 -18 12 4
33 83 40 92 75 89 18 -1 37 2 41 6 4 5 1 7 -7 4 -26 -8 -39 17 -43 83 l-3 64
-2 -72 c-1 -40 -6 -73 -12 -73 -5 0 -11 33 -13 73 l-3 72 -2 -72 c-3 -95 -22
-96 -22 -1 0 100 -8 81 -11 -25 -1 -68 -5 -87 -16 -87 -8 0 -12 4 -8 9 3 5 -3
12 -12 14 -17 4 -17 5 0 6 15 1 17 11 15 79 l-2 77 -3 -72 c-5 -91 -21 -96
-22 -7 0 93 -9 92 -13 -2z"/>
<path d="M296 535 c-15 -11 -17 -18 -9 -26 6 -6 9 -18 5 -27 -4 -11 -1 -14 10
-10 9 4 20 2 26 -4 6 -6 12 -5 17 4 5 7 5 10 1 6 -12 -10 -34 15 -28 31 3 9 1
12 -6 7 -16 -9 -15 7 0 22 16 16 7 15 -16 -3z"/>
<path d="M1072 530 c0 -14 2 -19 5 -12 2 6 2 18 0 25 -3 6 -5 1 -5 -13z"/>
<path d="M1135 540 c11 -5 31 -8 45 -8 l25 0 -25 8 c-14 4 -34 8 -45 8 l-20 1
20 -9z"/>
<path d="M141 514 c0 -11 3 -14 6 -6 3 7 2 16 -1 19 -3 4 -6 -2 -5 -13z"/>
<path d="M520 480 c0 -51 -18 -75 -38 -51 -10 12 -12 12 -6 1 6 -12 4 -13 -7
-2 -18 17 -25 15 -25 -8 0 -15 7 -20 28 -20 15 0 30 5 33 10 4 6 11 8 16 5 5
-4 9 18 9 49 0 31 -2 56 -5 56 -3 0 -5 -18 -5 -40z"/>
<path d="M65 484 l-40 -12 45 5 c49 6 56 9 43 16 -4 2 -26 -1 -48 -9z"/>
<path d="M1061 493 c-1 -6 -4 -20 -7 -30 -5 -17 -5 -17 6 0 6 10 9 23 6 30 -3
9 -5 9 -5 0z"/>
<path d="M1136 485 c-26 -19 -6 -19 30 0 23 12 25 15 9 15 -11 -1 -29 -7 -39
-15z"/>
<path d="M701 464 c0 -11 3 -14 6 -6 3 7 2 16 -1 19 -3 4 -6 -2 -5 -13z"/>
<path d="M77 431 c-11 -22 -11 -28 -2 -25 15 6 38 54 26 54 -5 0 -16 -13 -24
-29z"/>
<path d="M160 445 c0 -20 59 -111 100 -155 l42 -45 -41 50 c-22 28 -54 75 -70
105 -17 30 -31 51 -31 45z"/>
<path d="M363 422 c2 -12 6 -24 10 -28 3 -4 4 4 2 16 -6 30 -16 40 -12 12z"/>
<path d="M1024 398 c-10 -23 -46 -72 -78 -108 l-60 -65 56 54 c51 49 116 146
106 157 -3 2 -13 -15 -24 -38z"/>
<path d="M1120 425 c-8 -9 -9 -15 -2 -15 6 0 14 5 18 11 3 6 15 9 25 6 11 -3
17 -1 13 4 -8 14 -40 11 -54 -6z"/>
<path d="M740 416 c0 -2 7 -7 16 -10 8 -3 12 -2 9 4 -6 10 -25 14 -25 6z"/>
<path d="M866 403 c-6 -14 -5 -15 5 -6 7 7 10 15 7 18 -3 3 -9 -2 -12 -12z"/>
<path d="M1103 379 c22 -11 41 -18 44 -15 6 6 -52 36 -69 36 -7 -1 4 -10 25
-21z"/>
<path d="M140 379 c0 -5 5 -7 10 -4 6 3 10 8 10 11 0 2 -4 4 -10 4 -5 0 -10
-5 -10 -11z"/>
<path d="M137 353 c-4 -3 -7 -16 -7 -29 0 -12 -5 -25 -10 -27 -6 -3 -5 -4 2
-3 14 3 42 66 30 66 -5 0 -12 -3 -15 -7z"/>
<path d="M1065 353 c11 -3 28 -12 38 -21 10 -9 17 -11 17 -4 0 14 -33 32 -57
31 -16 -1 -15 -2 2 -6z"/>
<path d="M1049 313 c6 -13 19 -23 28 -23 9 0 14 1 12 3 -2 1 -15 11 -28 22
l-24 20 12 -22z"/>
<path d="M185 310 c-3 -5 -1 -10 4 -10 6 0 11 5 11 10 0 6 -2 10 -4 10 -3 0
-8 -4 -11 -10z"/>
<path d="M555 309 c-4 -6 -5 -12 -2 -15 2 -3 7 2 10 11 7 17 1 20 -8 4z"/>
<path d="M205 240 c-16 -16 -26 -32 -24 -35 3 -3 18 9 34 25 16 16 26 32 24
35 -3 3 -18 -9 -34 -25z"/>
<path d="M530 256 c0 -2 9 -6 20 -9 11 -3 18 -1 14 4 -5 9 -34 13 -34 5z"/>
<path d="M1003 254 c10 -10 80 -16 74 -6 -3 4 -23 9 -43 10 -21 2 -35 0 -31
-4z"/>
<path d="M310 246 c0 -2 8 -10 18 -17 15 -13 16 -12 3 4 -13 16 -21 21 -21 13z"/>
<path d="M350 216 c0 -3 9 -10 20 -16 11 -6 20 -8 20 -6 0 3 -9 10 -20 16 -11
6 -20 8 -20 6z"/>
<path d="M820 195 c-14 -8 -20 -14 -14 -15 5 0 19 7 30 15 24 18 16 19 -16 0z"/>
<path d="M962 201 c4 -13 18 -16 19 -4 0 4 -5 9 -11 12 -7 2 -11 -2 -8 -8z"/>
<path d="M257 184 c-3 -3 -3 -13 0 -21 5 -12 7 -12 14 -1 15 23 4 40 -14 22z"/>
<path d="M410 180 c8 -5 20 -10 25 -10 6 0 3 5 -5 10 -8 5 -19 10 -25 10 -5 0
-3 -5 5 -10z"/>
<path d="M338 135 c-4 -52 7 -47 17 8 5 23 3 37 -3 37 -5 0 -12 -20 -14 -45z"/>
<path d="M867 138 c18 -18 35 -29 39 -26 7 8 -45 57 -61 58 -5 0 5 -14 22 -32z"/>
<path d="M488 153 c7 -3 16 -2 19 1 4 3 -2 6 -13 5 -11 0 -14 -3 -6 -6z"/>
<path d="M718 153 c7 -3 16 -2 19 1 4 3 -2 6 -13 5 -11 0 -14 -3 -6 -6z"/>
<path d="M811 155 c26 -69 34 -85 41 -85 10 0 -18 71 -34 85 -7 7 -9 7 -7 0z"/>
<path d="M378 108 c-24 -57 -16 -59 15 -4 15 28 21 46 14 46 -7 0 -20 -19 -29
-42z"/>
<path d="M533 143 c9 -2 23 -2 30 0 6 3 -1 5 -18 5 -16 0 -22 -2 -12 -5z"/>
<path d="M653 143 c9 -2 23 -2 30 0 6 3 -1 5 -18 5 -16 0 -22 -2 -12 -5z"/>
<path d="M427 122 c-18 -19 -23 -67 -9 -76 5 -3 6 8 4 24 -3 19 3 35 17 49 12
12 17 21 13 21 -5 0 -16 -8 -25 -18z"/>
<path d="M752 101 c24 -30 57 -55 64 -49 5 6 -67 78 -78 78 -5 0 1 -13 14 -29z"/>
<path d="M507 83 c6 -39 10 -50 17 -42 6 8 -6 79 -14 79 -5 0 -6 -17 -3 -37z"/>
<path d="M670 112 c0 -19 58 -94 64 -84 3 6 -1 15 -9 22 -8 7 -15 17 -15 22 0
5 -9 18 -20 30 -11 12 -20 16 -20 10z"/>
<path d="M559 108 c-6 -27 -7 -88 -1 -92 4 -2 8 18 10 45 2 27 1 49 -2 49 -4
0 -6 -1 -7 -2z"/>
<path d="M613 60 c12 -27 27 -50 33 -50 7 0 1 21 -14 50 -33 65 -47 65 -19 0z"/>
</g>
</svg>
