<svg xmlns="http://www.w3.org/2000/svg" viewBox="0 0 42 42"><g fill-rule="evenodd"><path d="m16.81 22.51c-.83 2.17-3.25 3.2-3.92 2.83-.34-.18 0-.87 0-1.34-.49.19-1.3.55-1.79.75a5 5 0 0 1 0 7.59c2 3 1 5.58-1.79 7.59l-.11.07-.06-.2a9.45 9.45 0 0 0 -1.92-3.77c-.49-.57-1.05-1.09-1.6-1.61-.72-.68-1.42-1.38-2.07-2.12-2.75-2.88-3.84-7.95-3.48-11.87a15.28 15.28 0 0 1 1.74-5.75 18.11 18.11 0 0 1 2.8-3.91 20.67 20.67 0 0 1 9.07-5.67 12.63 12.63 0 0 1 9.32.43 10.45 10.45 0 0 1 1.54 1l.71.67.08.08 13.37-6.85c1.1-.55 1.93-.55 2.3-.15s-.15 1.43-.93 2l-11.5 8.31a2.61 2.61 0 0 1 -.64 2.2c1.53.53.18 2.77-.49 3.57-1.92 2.27-5.43 4.05-8.56 5.35-.84.36-1.32.51-2.07.79m-7.48 3c-1.25.57-3.69 1.84-3.46 3.22.32.85 1.31 0 1.68-.4a7.24 7.24 0 0 0 1.78-2.77z" fill="#383c42"/><path d="m27.3 14.66c.86-1.08.26-1.7-.34-1.1a5.24 5.24 0 0 1 -4.57 1.36c-2.35-.39-2.46-.75-2.06-1.1a6.39 6.39 0 0 0 7.34-2.49c.58-.83-1.36-1.49-2.5-3-5.48-7.44-22.64-.99-24.28 11.94a14.46 14.46 0 0 0 3.27 11.23c2 2.27 4.18 3.22 5.41 6.79 2.4-2.06 2-4.39.27-6.43a4 4 0 0 0 .46-6.86c-1 3.61-4.51 6.28-5.33 3.72-.53-2.61 3.77-4.34 10.65-7 5.76-2.16 9.48-3.94 11.68-7.12" fill="#31d3db"/><path d="m27.3 14.66c.86-1.08.26-1.7-.34-1.1a5.18 5.18 0 0 1 -3.96 1.44c-2.37-.17-4.26-.64-6-.45a15.16 15.16 0 0 0 -8.52 4.32c-3 3.08-6.32 9.48-3 10.72a1.49 1.49 0 0 1 -.48-.86c-.53-2.61 3.77-4.34 10.65-7 5.76-2.16 9.48-3.94 11.68-7.12" fill="#fff"/><path d="m12.55 19.71c1.77.87 1.42 3.91 1.16 4.67 3.36-1 2.36-5.93 3.92-7.45-2-.06-5.62 1.91-5.08 2.78" fill="#31d3db"/><path d="m18.23 10.69a1 1 0 1 1 .92 1.72 1 1 0 0 1 -.92-1.72" fill="#383c42"/><path d="m26.39 11.1 13.49-9.39c.38-.27.88-.85.67-1.13s-.79-.13-1.29.1l-14.58 7.88c-.47 1 .48 3.05 1.72 2.54" fill="#31d3db"/><path d="m25.21 9.25 14.09-8.25a2.31 2.31 0 0 1 1.23-.4c-.21-.24-.79-.1-1.27.13l-14.58 7.83a2.22 2.22 0 0 0 .89 2.51 3.16 3.16 0 0 1 -.36-1.83" fill="#fff"/><path d="m4.45 12.93a.67.67 0 0 1 .81.71 1 1 0 0 1 -.84 1 .67.67 0 0 1 -.8-.7 1.06 1.06 0 0 1 .83-1" fill="#21aaad"/><path d="m7.18 9.92a.59.59 0 0 1 .71.63 1 1 0 0 1 -.74.89.59.59 0 0 1 -.71-.63 1 1 0 0 1 .74-.89" fill="#21aaad"/><path d="m15.46 5.93a.59.59 0 0 1 .54.77.94.94 0 0 1 -.91.69.6.6 0 0 1 -.56-.77.94.94 0 0 1 .92-.69" fill="#21aaad"/><path d="m18 5.52a.5.5 0 0 1 .37.71.8.8 0 0 1 -.85.45.5.5 0 0 1 -.37-.68.8.8 0 0 1 .85-.48" fill="#21aaad"/><path d="m7.21 11.81a.44.44 0 0 1 .53.47.68.68 0 0 1 -.55.65.44.44 0 0 1 -.53-.46.71.71 0 0 1 .55-.66" fill="#21aaad"/><path d="m2.95 15.35a.45.45 0 0 1 .55.48.72.72 0 0 1 -.57.68.47.47 0 0 1 -.56-.51.72.72 0 0 1 .58-.68" fill="#21aaad"/><path d="m38 1.34-.37.2a2 2 0 0 0 .67 1.13 3.32 3.32 0 0 1 -.3-1.33m-3.2 1.72-.42.23c0 .54.39 1.35.83 1.46a2.94 2.94 0 0 1 -.36-1.69zm-3.32 1.8-.55.3a2.54 2.54 0 0 0 1.13 1.84 4.36 4.36 0 0 1 -.53-2.14zm-3.31 1.82-.63.32a2.89 2.89 0 0 0 1.34 2.21 4.43 4.43 0 0 1 -.71-2.53z" fill="#21aaad"/></g></svg>
