<svg version="1.1" id="Layer_1" xmlns="http://www.w3.org/2000/svg" xmlns:xlink="http://www.w3.org/1999/xlink" x="0px" y="0px"
	 width="100%" viewBox="0 0 514 492" enable-background="new 0 0 514 492" xml:space="preserve">
<path fill="#FFFFFE" opacity="1.000000" stroke="none"
	d="
M362.000000,493.000000
	C241.333359,493.000000 121.166725,493.000000 1.000064,493.000000
	C1.000043,329.000061 1.000043,165.000137 1.000021,1.000153
	C172.333237,1.000102 343.666473,1.000102 514.999756,1.000051
	C514.999878,164.999847 514.999878,328.999695 514.999939,492.999756
	C464.166656,493.000000 413.333344,493.000000 362.000000,493.000000
M149.646317,358.083679
	C149.973633,355.463684 150.585342,352.843842 150.586960,350.223633
	C150.637375,268.738647 150.628250,187.253647 150.628098,105.768639
	C150.628098,104.768829 150.645508,103.768539 150.621399,102.769287
	C150.530884,99.017563 148.995651,96.972191 144.845795,97.062965
	C136.851089,97.237839 128.836761,97.389351 120.856232,97.010254
	C116.074203,96.783096 114.728249,98.227234 114.736786,103.070946
	C114.884277,186.721954 114.840721,270.373291 114.856873,354.024567
	C114.857193,355.674927 115.072464,357.325226 114.868141,359.727631
	C114.868141,371.292389 114.868141,382.857117 114.868141,394.932587
	C125.649162,394.932587 136.074722,395.106903 146.479889,394.725433
	C147.876587,394.674194 150.270966,391.859558 150.331299,390.254211
	C150.692520,380.645142 150.536499,371.015228 150.448776,361.393250
	C150.440964,360.534973 149.682861,359.683533 149.646317,358.083679
M363.837891,360.500000
	C363.837891,272.900360 363.837891,185.300751 363.837891,97.462814
	C351.908295,97.462814 339.849579,97.462814 328.132050,97.462814
	C328.132050,196.565796 328.132050,295.304230 328.132050,394.260559
	C340.277405,394.260559 351.835571,394.260559 363.837585,394.260559
	C363.837585,383.105316 363.837585,372.302673 363.837891,360.500000
M221.220062,130.500015
	C221.301880,120.672997 221.477356,110.844803 221.353119,101.020386
	C221.336624,99.715919 219.822144,97.324043 218.958710,97.304298
	C207.858353,97.050491 196.750214,97.136574 185.742416,97.136574
	C185.742416,196.540924 185.742416,295.387146 185.742416,394.598907
	C195.534714,394.598907 204.843750,394.601196 214.152771,394.598206
	C221.210205,394.595917 221.218491,394.592896 221.218674,387.431427
	C221.220779,302.120972 221.220200,216.810501 221.220062,130.500015
M292.836639,185.500000
	C292.836548,158.184464 292.767792,130.868591 292.902740,103.553711
	C292.925720,98.900368 291.468109,96.851181 286.576935,97.035095
	C279.258728,97.310265 271.922485,97.104149 264.593933,97.107056
	C256.996643,97.110062 256.992035,97.112305 256.991943,104.645699
	C256.990906,198.751068 256.991241,292.856445 256.991394,386.961823
	C256.991394,387.961182 257.025452,388.961700 256.988251,389.959656
	C256.868835,393.164490 258.709076,394.547455 261.598907,394.567291
	C271.867249,394.637787 282.136414,394.594788 292.836456,394.594788
	C292.836456,324.992676 292.836456,255.746338 292.836639,185.500000
M420.486328,219.135330
	C415.161346,219.135773 409.832703,219.256760 404.512634,219.095688
	C400.761322,218.982101 399.040070,220.313873 399.073700,224.282669
	C399.196442,238.758881 399.201660,253.237457 399.069794,267.713501
	C399.034210,271.616730 400.546051,273.044312 404.392029,272.967682
	C412.708984,272.801941 421.039154,272.705048 429.348633,273.004059
	C433.676971,273.159821 435.199646,271.870331 435.094635,267.401306
	C434.821075,255.759384 435.003448,244.106735 435.003632,232.458374
	C435.003815,219.134720 435.003662,219.134720 420.486328,219.135330
z"/>
<path fill="#FFCE0A" opacity="1.000000" stroke="none"
	d="
M363.837738,361.000000
	C363.837585,372.302673 363.837585,383.105316 363.837585,394.260559
	C351.835571,394.260559 340.277405,394.260559 328.132050,394.260559
	C328.132050,295.304230 328.132050,196.565796 328.132050,97.462814
	C339.849579,97.462814 351.908295,97.462814 363.837891,97.462814
	C363.837891,185.300751 363.837891,272.900360 363.837738,361.000000
z"/>
<path fill="#FFCD06" opacity="1.000000" stroke="none"
	d="
M221.220215,131.000031
	C221.220200,216.810501 221.220779,302.120972 221.218674,387.431427
	C221.218491,394.592896 221.210205,394.595917 214.152771,394.598206
	C204.843750,394.601196 195.534714,394.598907 185.742416,394.598907
	C185.742416,295.387146 185.742416,196.540924 185.742416,97.136574
	C196.750214,97.136574 207.858353,97.050491 218.958710,97.304298
	C219.822144,97.324043 221.336624,99.715919 221.353119,101.020386
	C221.477356,110.844803 221.301880,120.672997 221.220215,131.000031
z"/>
<path fill="#FFCD08" opacity="1.000000" stroke="none"
	d="
M292.836548,186.000000
	C292.836456,255.746338 292.836456,324.992676 292.836456,394.594788
	C282.136414,394.594788 271.867249,394.637787 261.598907,394.567291
	C258.709076,394.547455 256.868835,393.164490 256.988251,389.959656
	C257.025452,388.961700 256.991394,387.961182 256.991394,386.961823
	C256.991241,292.856445 256.990906,198.751068 256.991943,104.645699
	C256.992035,97.112305 256.996643,97.110062 264.593933,97.107056
	C271.922485,97.104149 279.258728,97.310265 286.576935,97.035095
	C291.468109,96.851181 292.925720,98.900368 292.902740,103.553711
	C292.767792,130.868591 292.836548,158.184464 292.836548,186.000000
z"/>
<path fill="#FFCD06" opacity="1.000000" stroke="none"
	d="
M115.187447,358.975586
	C115.072464,357.325226 114.857193,355.674927 114.856873,354.024567
	C114.840721,270.373291 114.884277,186.721954 114.736786,103.070946
	C114.728249,98.227234 116.074203,96.783096 120.856232,97.010254
	C128.836761,97.389351 136.851089,97.237839 144.845795,97.062965
	C148.995651,96.972191 150.530884,99.017563 150.621399,102.769287
	C150.645508,103.768539 150.628098,104.768829 150.628098,105.768639
	C150.628250,187.253647 150.637375,268.738647 150.586960,350.223633
	C150.585342,352.843842 149.973633,355.463684 149.063660,358.548523
	C137.383163,359.000763 126.285301,358.988159 115.187447,358.975586
z"/>
<path fill="#FFCE0B" opacity="1.000000" stroke="none"
	d="
M420.982941,219.135406
	C435.003662,219.134720 435.003815,219.134720 435.003632,232.458374
	C435.003448,244.106735 434.821075,255.759384 435.094635,267.401306
	C435.199646,271.870331 433.676971,273.159821 429.348633,273.004059
	C421.039154,272.705048 412.708984,272.801941 404.392029,272.967682
	C400.546051,273.044312 399.034210,271.616730 399.069794,267.713501
	C399.201660,253.237457 399.196442,238.758881 399.073700,224.282669
	C399.040070,220.313873 400.761322,218.982101 404.512634,219.095688
	C409.832703,219.256760 415.161346,219.135773 420.982941,219.135406
z"/>
<path fill="#FF0809" opacity="1.000000" stroke="none"
	d="
M115.027794,359.351624
	C126.285301,358.988159 137.383163,359.000763 148.877121,358.921143
	C149.682861,359.683533 150.440964,360.534973 150.448776,361.393250
	C150.536499,371.015228 150.692520,380.645142 150.331299,390.254211
	C150.270966,391.859558 147.876587,394.674194 146.479889,394.725433
	C136.074722,395.106903 125.649162,394.932587 114.868141,394.932587
	C114.868141,382.857117 114.868141,371.292389 115.027794,359.351624
z"/>
</svg>