<?xml version="1.0" encoding="utf-8"?>
<!-- Generator: Adobe Illustrator 15.1.0, SVG Export Plug-In . SVG Version: 6.00 Build 0)  -->
<!DOCTYPE svg PUBLIC "-//W3C//DTD SVG 1.1 Tiny//EN" "http://www.w3.org/Graphics/SVG/1.1/DTD/svg11-tiny.dtd">
<svg version="1.1" baseProfile="tiny" id="Layer_1" xmlns="http://www.w3.org/2000/svg" xmlns:xlink="http://www.w3.org/1999/xlink"
	 x="0px" y="0px" width="400px" height="113.418px" viewBox="0 0 400 113.418" xml:space="preserve">
<g>
	<path fill="#FFFFFF" d="M183.326,9.362c6.155,0.111,12.54,0.647,18.763,2.414c1.8,0.511,3.587,1.071,5.249,1.96
		c4.013,2.149,5.112,5.354,4.454,9.402c-0.785,4.838-4.289,7.538-9.177,7.274c-2.994-0.16-5.832-1.129-8.73-1.769
		c-4.021-0.886-8.033-1.816-12.176-1.842c-3.782-0.022-7.512,0.395-10.852,2.329c-4.907,2.845-4.996,8.838-0.262,11.985
		c2.44,1.62,5.182,2.498,7.956,3.291c5.658,1.616,11.449,2.764,16.989,4.794c4.709,1.726,9.12,3.951,12.694,7.585
		c3.717,3.78,5.711,8.377,6.417,13.565c0.688,5.086,0.42,10.109-1.233,15.01c-1.429,4.234-3.878,7.789-7.332,10.616
		c-5.069,4.147-11.031,6.192-17.415,7.11c-9.977,1.438-19.854,0.753-29.612-1.674c-2.917-0.726-5.77-1.688-8.376-3.246
		c-2.94-1.758-4.457-4.367-4.368-7.779c0.097-3.649,1.635-6.527,5.046-8.133c2.57-1.211,5.256-1.023,7.92-0.289
		c3.753,1.034,7.387,2.483,11.2,3.298c5.992,1.28,12,1.611,17.938-0.271c3.177-1.008,5.63-2.907,6.484-6.32
		c1.049-4.184-0.428-7.373-4.329-9.538c-2.842-1.576-5.937-2.471-9.046-3.316c-5.471-1.485-11.02-2.711-16.302-4.831
		c-4.105-1.647-7.933-3.747-11.082-6.935c-3.465-3.507-5.431-7.762-6.216-12.58c-0.646-3.947-0.618-7.898,0.296-11.811
		c1.219-5.218,3.993-9.467,8.207-12.748c5.024-3.911,10.858-5.845,17.064-6.845C176.659,9.561,179.845,9.371,183.326,9.362"/>
	<path fill="#FFFFFF" d="M272.218,59.471c-0.356-3.838-0.858-7.552-4.27-9.994c-2.318-1.658-5.049-1.982-7.802-2.097
		c-4.757-0.2-9.324,0.882-13.88,2.071c-2.546,0.664-5.042,1.622-7.709,1.689c-3.226,0.082-6.22-0.646-7.896-3.684
		c-2.388-4.331-1.498-9.418,4.449-11.493c3.049-1.064,6.211-1.695,9.387-2.222c5.346-0.885,10.735-1.291,16.155-1.107
		c5.76,0.192,11.353,1.227,16.554,3.804c6.98,3.456,11.695,8.8,13.466,16.533c0.724,3.162,0.985,6.369,1.025,9.596
		c0.069,5.686,0.236,11.376-0.291,17.047c-0.469,5.065-1.832,9.818-5.11,13.866c-2.493,3.074-5.611,5.298-9.222,6.847
		c-7.04,3.021-14.432,3.776-22.004,3.367c-4.525-0.243-8.98-0.867-13.302-2.267c-4.105-1.331-7.858-3.266-10.922-6.402
		c-3.229-3.3-4.917-7.309-5.402-11.821c-0.407-3.78-0.169-7.542,0.944-11.215c1.621-5.356,5.068-9.086,10.148-11.342
		c4.92-2.184,10.154-2.768,15.455-2.947c6.66-0.224,13.249,0.427,19.781,1.703C271.887,59.426,272.003,59.438,272.218,59.471
		 M258.979,89.694c0.95-0.074,2.176-0.085,3.397-0.245c4.575-0.597,7.731-3.306,8.977-7.715c0.778-2.754,0.84-5.57,0.888-8.399
		c0.013-0.774-0.272-0.991-0.969-1.052c-1.651-0.138-3.297-0.372-4.95-0.5c-4.383-0.336-8.769-0.645-13.165-0.225
		c-1.755,0.167-3.471,0.549-4.992,1.467c-2.224,1.34-2.999,3.506-3.315,5.958c-0.583,4.502,1.388,7.771,5.633,9.384
		C253.146,89.378,255.906,89.613,258.979,89.694"/>
	<path fill="#FFFFFF" d="M366.534,50.374c-0.561-0.001-0.9,0.026-0.894,0.76c0.08,8.083-0.114,16.169,0.128,24.252
		c0.058,1.942,0.357,3.858,1.005,5.693c1.3,3.68,4.027,5.57,7.797,6.14c3.751,0.565,7.399-0.154,11.057-0.82
		c2.446-0.445,4.896-0.882,7.399-0.687c2.916,0.227,5.078,1.605,6.16,4.365c1.049,2.674,1.216,5.391-0.293,7.981
		c-0.907,1.559-2.409,2.415-4.034,3.059c-3.191,1.264-6.533,1.889-9.924,2.298c-6.129,0.738-12.217,0.493-18.196-1.074
		c-7.677-2.013-13.796-6.153-17.506-13.375c-1.72-3.349-2.427-6.996-2.811-10.707c-0.291-2.816-0.264-5.647-0.264-8.475V19.336
		c-0.053-5.634,3.217-8.151,7.806-8.873c2.647-0.418,5.209-0.06,7.608,1.16c2.793,1.416,4.107,3.725,4.09,6.854l-0.025,14.111
		c-0.008,0.791,0.229,0.949,0.976,0.947l24.257-0.018c1.977-0.002,3.849,0.367,5.491,1.531c2.318,1.647,3.227,4.023,3.329,6.756
		c0.158,4.244-2.449,7.553-6.609,8.391c-0.806,0.162-1.649,0.174-2.477,0.178H366.534z"/>
	<path fill="#FFFFFF" d="M307.127,18.694c0-1.523,0.232-2.989,1.102-4.296c1.436-2.162,3.544-3.244,6.004-3.727
		c3.118-0.613,6.117-0.309,8.884,1.367c2.376,1.438,3.542,3.571,3.542,6.347l-0.006,59.325c0,1.386,0.035,2.768,0.231,4.139
		c0.351,2.445,1.726,4.218,3.736,5.547c1.518,1.006,3.02,2.002,3.818,3.751c1.439,3.156,0.821,6.063-1.089,8.768
		c-1.839,2.598-4.417,3.804-7.577,3.412c-8.213-1.011-13.483-5.813-16.629-13.214c-1.602-3.77-1.994-7.774-2.007-11.816
		L307.127,18.694z"/>
	<path fill="#CBDFD3" d="M76.337,0H37.082c-0.02,0-0.038,0-0.058,0c-3.086,0.005-5.544,2.602-5.544,5.688v38.28
		c0,1.146,0.686,2.147,1.705,2.671c2.228,1.146,4.021,3.013,5.067,5.298c0.468,1.02,1.44,1.714,2.563,1.714h3.952
		c0.985,0,1.871-0.516,2.447-1.316c1.324-1.834,3.473-3.029,5.905-3.029c2.435,0,4.584,1.194,5.907,3.029
		c0.577,0.8,1.462,1.316,2.447,1.316h8.837c1.309,0,2.422-0.873,2.825-2.116c2.133-6.571,8.295-11.326,15.576-11.326
		c7.282,0,13.444,4.755,15.576,11.326c0.404,1.244,1.517,2.116,2.824,2.116h0.409c3.256,0,5.896-2.64,5.896-5.895V37.082
		C113.419,16.602,96.816,0,76.337,0"/>
	<path fill="#6BAB93" d="M0,37.082v10.674c0,3.256,2.641,5.895,5.895,5.895h9.442c1.114,0,2.089-0.68,2.553-1.696
		c1.152-2.531,3.225-4.54,5.787-5.633c1.129-0.481,1.909-1.529,1.909-2.756V10.814c0-4.449-4.935-7.271-8.666-4.851
		C6.736,12.572,0,24.038,0,37.082"/>
	<path fill="#6BAB93" d="M107.522,59.546h-0.409c-1.307,0-2.42,0.873-2.823,2.116c-2.133,6.571-8.294,11.326-15.576,11.326
		s-13.443-4.755-15.578-11.326c-0.403-1.243-1.517-2.116-2.823-2.116h-8.839c-0.985,0-1.871,0.521-2.449,1.32
		c-0.393,0.544-0.858,1.033-1.384,1.449c-0.724,0.572-1.174,1.418-1.174,2.342v42.865c0,3.257,2.64,5.895,5.896,5.895h13.975
		c20.478,0,37.079-16.602,37.079-37.08V65.44C113.417,62.187,110.779,59.546,107.522,59.546"/>
	<path fill="#CBDFD3" d="M47.178,60.811c-0.539-0.762-1.369-1.264-2.302-1.264h-4.062c-1.123,0-2.095,0.696-2.563,1.719
		c-1.768,3.855-5.654,6.538-10.177,6.538c-4.52,0-8.407-2.683-10.174-6.538c-0.47-1.022-1.44-1.719-2.564-1.719H5.896
		C2.64,59.547,0,62.186,0,65.441v10.895c0,20.48,16.602,37.082,37.082,37.082h7.595c3.256,0,5.896-2.64,5.896-5.895V65.287
		c0-0.996-0.461-1.973-1.307-2.504C48.447,62.271,47.736,61.6,47.178,60.811"/>
</g>
</svg>
