<?xml version="1.0" standalone="no"?>
<!DOCTYPE svg PUBLIC "-//W3C//DTD SVG 20010904//EN"
 "http://www.w3.org/TR/2001/REC-SVG-20010904/DTD/svg10.dtd">
<svg version="1.0" xmlns="http://www.w3.org/2000/svg"
 width="216.000000pt" height="276.000000pt" viewBox="0 0 216.000000 276.000000"
 preserveAspectRatio="xMidYMid meet">
<metadata>
Created by potrace 1.10, written by Peter Selinger 2001-2011
</metadata>
<g transform="translate(0.000000,276.000000) scale(0.100000,-0.100000)"
fill="#ff0000" stroke="none">
<path d="M975 2650 c-419 -66 -716 -447 -665 -854 34 -277 193 -503 436 -621
77 -38 207 -75 260 -75 l34 0 2 -209 3 -210 228 263 c150 172 251 279 294 312
169 127 279 325 304 550 41 368 -213 731 -580 825 -90 23 -232 32 -316 19z
m609 -476 c14 -13 16 -56 16 -319 0 -355 6 -335 -100 -335 -106 0 -100 -20
-100 335 0 355 -6 335 100 335 49 0 73 -4 84 -16z m-560 -200 c14 -13 16 -47
16 -216 0 -241 1 -238 -98 -238 -104 0 -102 -5 -102 236 0 241 -3 234 100 234
49 0 73 -4 84 -16z m280 -140 c13 -12 16 -41 16 -149 0 -163 -1 -165 -100
-165 -99 0 -100 2 -100 165 0 163 1 165 100 165 49 0 73 -4 84 -16z m-560
-100 c12 -11 16 -36 16 -96 0 -107 -10 -118 -98 -118 -93 0 -102 11 -102 116
0 106 7 114 100 114 49 0 73 -4 84 -16z"/>
</g>
</svg>
