<?xml version="1.0" encoding="utf-8"?>
<!-- Svg Vector Icons : http://www.onlinewebfonts.com/icon -->
<!DOCTYPE svg PUBLIC "-//W3C//DTD SVG 1.1//EN" "http://www.w3.org/Graphics/SVG/1.1/DTD/svg11.dtd">
<svg version="1.1" xmlns="http://www.w3.org/2000/svg" xmlns:xlink="http://www.w3.org/1999/xlink" x="0px" y="0px" viewBox="0 0 256 256" enable-background="new 0 0 256 256" xml:space="preserve">
<metadata> Svg Vector Icons : http://www.onlinewebfonts.com/icon <div>Fonts made from <a href="http://www.onlinewebfonts.com">Web Fonts</a> is licensed by CC BY 4.0</div></metadata>
<g><g><path fill="#000000" d="M52,171.8c-1,0.9-1.9,1.8-2.7,2.7c-6.8,7.2-18.4,22.2-16,34.7c0.2,1.1,0.6,2.2,1,3.3c11.8,18.1,35,25.4,55.8,28.7c0.8,0.1,1.6,0.2,2.4,0.4c19,2.9,44.8,4.5,44.8,4.5s3.6-7.2,8.4-17.6c0.3-0.7,0.7-1.5,1-2.3c10.3-26.1,15.2-52.9,15.2-79.6c0-1.4,0.1-2.8,0.1-4.2c0-5.1-0.3-9.6-1-12.9c-26.2,7.9-54.4,17.5-67.1,23.1C76.2,160.4,52.6,171.5,52,171.8z"/><path fill="#000000" d="M129.5,34.3c-4.2-9.2-10.3-24.3-10.3-24.3L70.6,38.6c0,0,36.2,8.5,68.8,15.1C135.4,45.9,131.7,39.2,129.5,34.3z"/><path fill="#000000" d="M134.2,98.7c-13.2,17.9-28.8,34-46.3,47.9c1.3-0.6,2.6-1.2,3.9-1.7c7.6-3.4,21.7-8.4,37.1-13.4c9.7-7.5,18.8-15.8,27.2-24.7C149.1,103.7,141.8,101,134.2,98.7z"/><path fill="#000000" d="M145.9,62.8c-2-0.4-4-0.8-6.2-1.2c-2.8-0.5-5.8-1.1-8.7-1.7c-28.1-5.6-59.1-12.9-59.1-12.9s7.3,7.7,14,15.2c0.4,0.5,0.9,1,1.3,1.5c3.8,4.5,6.8,9.7,8.9,15.2c0.1,0.4,0.2,0.6,0.4,1c0,0.1,0,0.2,0.1,0.3c0,0.1,0,0.1,0.1,0.2c11.4,1.7,22.8,4.2,34.1,7.4C136.2,79.9,141.3,71.5,145.9,62.8z M98.7,75.8c0.1,0.4,0.3,0.8,0.4,1.2c0,0.1,0.1,0.2,0.1,0.4C99,76.8,98.9,76.3,98.7,75.8z"/><path fill="#000000" d="M162.9,99.5c7.5-8.5,14.3-17.6,20.6-27.1c-7.6-2.8-16.7-5.2-28.1-7.6c-4.7,9-9.9,17.7-15.5,26C147.7,93.3,155.4,96.2,162.9,99.5z"/><path fill="#000000" d="M124.7,95.9c-8.5-2.3-17.1-4.2-25.7-5.6c1.3,8.6,0.6,17.3-2.8,25.2c-0.4,1-0.9,2-1.5,3c-1.1,2-2.4,4-3.9,6c0,0,0,0,0,0.1c-4.6,5.9-15.9,17.7-24.4,26.4C88.8,135.8,108.5,117.2,124.7,95.9z"/><path fill="#000000" d="M151.8,124.3c8.5-2.6,16.6-4.9,23.6-6.8c0.7-0.2,1.4-0.4,2.2-0.6c-4-2.2-8.1-4.3-12.3-6.2C160.9,115.4,156.5,120,151.8,124.3z"/><path fill="#000000" d="M190.5,113.5c18.8-5.1,32.6-8.9,32.6-8.9s-11-15.3-23.7-24.2c-2.2-1.6-4.6-2.9-7.2-4.2c-6.2,9.6-13.1,18.7-20.5,27.3C178.1,106.6,184.4,109.9,190.5,113.5z"/><path fill="#000000" d="M98.7,75.8c0.2,0.5,0.4,1,0.6,1.6c0-0.1-0.1-0.2-0.1-0.4C99,76.5,98.8,76.2,98.7,75.8z"/></g></g>
</svg>