<svg version="1.1" id="Layer_1" xmlns="http://www.w3.org/2000/svg" x="0" y="0" viewBox="0 0 536.2 100.3" xml:space="preserve"><path fill="#2CB1E6" d="M47 95.3c1.3.8 1.6 2.5.8 3.7-.4.5-.9.9-1.5 1.1-.7.2-1.4.1-2-.2L6.9 78.4c-.6-.4-1-1-1.2-1.6-.2-.7-.1-1.4.3-2 .7-1.2 2.3-1.7 3.6-1.1L47 95.3zM56.2 90c1.3.8 1.7 2.5.9 3.7s-2.3 1.6-3.6 1L16.1 73.1c-.6-.4-1-1-1.1-1.6-.2-.7-.1-1.4.3-2 .7-1.2 2.3-1.7 3.6-1.1L56.2 90zM65.4 84.6c1.3.8 1.7 2.5.9 3.7-.8 1.2-2.3 1.6-3.6 1L25.3 67.7c-1.3-.7-1.8-2.4-1-3.7.7-1.3 2.4-1.8 3.7-1l37.4 21.6zM74.6 79.3c.6.4 1.1 1 1.3 1.7.2.7.1 1.4-.3 2-.3.6-.9 1.1-1.6 1.3-.7.2-1.5.1-2.1-.3L34.5 62.4c-.6-.4-1-1-1.2-1.6-.4-1.5.5-2.9 2-3.3.6-.2 1.3-.1 1.9.2l37.4 21.6zM83.9 74c1.3.8 1.7 2.5.9 3.7-.8 1.2-2.3 1.6-3.6 1L43.8 57.1c-1.3-.8-1.7-2.5-.9-3.7s2.3-1.6 3.6-1L83.9 74zM4 28.4c-.6.3-1.3.4-2 .3-1.5-.4-2.3-1.9-1.9-3.3.2-.6.5-1.2 1.1-1.5L37.8.9c.6-.3 1.3-.4 2-.2 1.4.4 2.3 1.8 2 3.3-.2.6-.5 1.2-1.1 1.6L4 28.4zM4.4 39c-.3.2-.6.4-1 .4-.4.1-.7.1-1.1 0s-.7-.2-1-.4-.6-.5-.8-.8-.3-.6-.4-1 0-.7 0-1.1c.1-.4.2-.7.5-1 .2-.3.5-.5.8-.7L38 11.5c.6-.3 1.3-.4 2-.2 1.4.4 2.3 1.9 1.9 3.3-.2.6-.6 1.2-1.1 1.5L4.4 39zM4.8 49.7c-.6.4-1.3.5-2 .3-1.5-.3-2.4-1.8-2-3.2.2-.7.6-1.3 1.2-1.7l36.6-22.9c.6-.3 1.3-.4 2-.2 1.4.4 2.3 1.8 2 3.3-.2.6-.5 1.2-1.1 1.6L4.8 49.7zM5.1 60.3c-1.3.8-2.9.4-3.7-.9-.8-1.3-.4-2.9.9-3.7l36.6-22.9c.3-.2.6-.4 1-.4.4-.1.7-.1 1.1 0 .4.1.7.2 1 .4s.6.5.8.8c.4.6.5 1.4.3 2.1-.1.4-.3.7-.5 1s-.5.5-.8.7L5.1 60.3zM5.5 71c-.3.2-.6.4-1 .4-.4.1-.7.1-1.1 0s-.7-.2-1-.4c-.3-.2-.6-.5-.8-.8s-.3-.6-.4-1 0-.7 0-1.1c.1-.4.2-.7.5-1 .2-.3.5-.5.8-.7l36.6-22.9c1.3-.8 2.9-.4 3.7.9.8 1.3.4 2.9-.9 3.7L5.5 71zM52.8 46.1c-.1 1.5-1.4 2.6-2.9 2.5-.6 0-1.2-.3-1.7-.7-.5-.5-.8-1.1-.8-1.8V2.9c0-.4 0-.7.2-1.1.1-.3.3-.7.6-.9.3-.3.6-.5.9-.6.2-.2.6-.3 1-.3s.7.1 1.1.2c.3.1.6.4.9.6.3.3.4.6.6.9.1.3.2.7.2 1.1l-.1 43.3zM62 51.4c-.1 1.5-1.4 2.6-2.9 2.5-.6 0-1.2-.3-1.7-.7-.5-.5-.8-1.1-.8-1.8V8.2c0-.7.2-1.5.7-2 .3-.3.6-.5.9-.6.3-.1.7-.2 1.1-.2.4 0 .7.1 1.1.2.3.1.6.4.9.6.5.5.8 1.3.7 2v43.2zM71.2 56.7c0 1.5-1.2 2.7-2.7 2.7a2.732 2.732 0 0 1-2.7-2.7V13.5a2.732 2.732 0 0 1 2.7-2.7c1.5 0 2.7 1.2 2.7 2.7v43.2zM80.4 62c-.1 1.5-1.4 2.6-2.9 2.5-.6 0-1.2-.3-1.7-.7-.5-.5-.8-1.1-.8-1.8V18.8c0-.7.2-1.5.7-2 .3-.3.6-.5.9-.6s.7-.2 1.1-.2.7.1 1.1.2c.3.1.6.4.9.6.5.5.8 1.3.7 2V62zM89.6 67.3c0 1.5-1.2 2.7-2.7 2.7a2.732 2.732 0 0 1-2.7-2.7V24.2a2.732 2.732 0 0 1 2.7-2.7c1.5 0 2.7 1.2 2.7 2.7v43.1z"/><path fill="#FFF" d="M175.6 77.5h-36c-1 0-2-.1-3-.3-1.1-.2-2.1-.6-3.1-1-1-.5-2-1.1-2.9-1.8-1-.8-1.8-1.7-2.5-2.7-.7-1.1-1.3-2.3-1.7-3.6-.5-1.5-.7-3.1-.7-4.7v-27c0-1 .1-2 .3-3 .3-1.1.6-2.1 1.1-3.2s1.1-2.1 1.8-3c.8-1 1.7-1.8 2.6-2.5 1.1-.7 2.3-1.3 3.5-1.7 1.5-.5 3-.7 4.6-.6h36l-7.1 10h-29c-1.7-.2-3.3.9-3.8 2.5-.2.5-.3 1.1-.2 1.6v26.9c-.1.5 0 1.1.2 1.6s.5 1 .9 1.4c.8.8 1.9 1.1 3 1h29.2l6.8 10.1zM252.7 40.9c0 2.1-.3 4.1-.9 6.1-.5 1.7-1.3 3.3-2.3 4.8-.9 1.3-2 2.5-3.3 3.5-1.2 1-2.6 1.8-4 2.4-2.5 1.1-5.3 1.7-8.1 1.8l20.9 18h-15.4l-20.9-18h-7.1v-10h22.6c1.2-.1 2.3-.3 3.4-.8 1-.4 1.9-1 2.7-1.7s1.4-1.6 1.8-2.6c.4-1.1.6-2.3.6-3.5v-6.3c0-.4 0-.9-.2-1.3-.1-.3-.3-.5-.5-.7s-.4-.2-.7-.3h-33.6v45.1h-10V27.5c0-.7.1-1.4.4-2 .2-.6.6-1.1 1-1.6.5-.5 1-.8 1.6-1.1.6-.3 1.3-.4 2-.4h37.9c2-.1 3.9.4 5.6 1.2 1.4.7 2.7 1.7 3.7 3 1 1.2 1.7 2.5 2.1 4 .4 1.3.6 2.6.7 4v6.3zM316.6 55h-27.5V44.9h27.5V55zm8.5 22.5h-36c-1.5 0-3.1-.3-4.5-.7-1.7-.5-3.2-1.3-4.6-2.3-3.3-2.7-5.1-6.7-4.9-11v-36c0-.7.1-1.4.4-2 .2-.6.6-1.1 1-1.6.5-.5 1-.9 1.6-1.1.6-.3 1.3-.4 2-.4h45l-6.9 10h-33.1v31.1c0 .5 0 1.1.2 1.6s.4 1 .8 1.4.9.7 1.4.8c.5.2 1.1.3 1.6.2h29l7 10zM402.4 54.5c0 3.2-.6 6.3-1.8 9.3-1.1 2.7-2.7 5.2-4.8 7.3-2.1 2.1-4.6 3.7-7.3 4.8-2.9 1.2-6 1.8-9.2 1.7h-27c-.7 0-1.4-.1-2-.4-1.2-.4-2.2-1.4-2.6-2.7-.3-.6-.4-1.3-.4-2v-45c0-.7.1-1.4.4-2 .2-.6.6-1.1 1-1.6.5-.5 1-.9 1.6-1.1.6-.3 1.3-.4 2-.4h27c3.1 0 6.3.6 9.2 1.7 2.7 1.1 5.2 2.7 7.3 4.8 2.1 2.1 3.7 4.6 4.8 7.3 1.2 2.9 1.8 6.1 1.8 9.2v9.1zm-10-9c0-1.8-.3-3.6-1-5.3-.6-1.5-1.4-2.9-2.6-4.1-1.2-1.2-2.6-2.1-4.1-2.6-1.7-.7-3.5-1-5.3-1h-22v35.2h22c1.8 0 3.6-.3 5.3-.9 1.5-.6 3-1.5 4.1-2.6 1.2-1.2 2.1-2.6 2.6-4.1.7-1.7 1-3.5 1-5.4v-9.2zM455 77.5h-10V36h10v41.5zM536.2 55.2c0 2.5-.3 4.9-1 7.3-.6 2.2-1.6 4.3-2.9 6.2-1.2 1.8-2.7 3.5-4.5 4.8-1.8 1.4-3.7 2.5-5.8 3.3l11.7 9.2h-14.5l-9.6-7.7h-9.8c-3.1 0-6.3-.5-9.2-1.7-2.7-1.1-5.2-2.7-7.3-4.8-2.1-2.1-3.7-4.6-4.9-7.3-1.2-2.9-1.8-6.1-1.7-9.3V44.7c0-3.2.6-6.3 1.7-9.2 2.2-5.5 6.6-9.9 12.1-12.1 2.9-1.2 6.1-1.8 9.2-1.7h13.5c3.1 0 6.2.5 9.2 1.7 2.7 1.1 5.2 2.7 7.3 4.8s3.7 4.6 4.8 7.3c1.2 2.9 1.8 6.1 1.7 9.2v10.5zm-10-10.5c0-1.8-.3-3.6-1-5.3-1.2-3.1-3.6-5.6-6.7-6.8-1.7-.7-3.5-1-5.3-1h-13.5c-1.8 0-3.6.3-5.4 1-3.1 1.2-5.6 3.6-6.8 6.8-.6 1.7-.9 3.5-.9 5.3v10.5c0 1.8.3 3.7.9 5.4.6 1.5 1.5 2.9 2.7 4.1 1.2 1.1 2.6 2 4.1 2.7 1.7.6 3.5 1 5.4.9h13.4c1.8 0 3.6-.3 5.3-.9 1.5-.6 3-1.5 4.2-2.7 1.2-1.2 2.1-2.6 2.6-4.1.7-1.7 1-3.5 1-5.4V44.7z"/><path fill="#2CB1E6" d="m450 19.4 7.7 5-7.7 4.9-7.7-5 7.7-4.9z"/></svg>