<svg width="65" height="65" viewBox="0 0 65 65" fill="none" xmlns="http://www.w3.org/2000/svg">
<g clip-path="url(#clip0_2_474)">
<path d="M21.66 54.66C21.66 54.66 24.33 45.39 32.87 45.39C41.41 45.39 44.04 54.66 44.04 54.66" stroke="#2D2E2E" stroke-width="5" stroke-linejoin="bevel"/>
<path d="M32.87 39.56C34.1608 39.558 35.422 39.1729 36.4937 38.4535C37.5655 37.7341 38.3996 36.7127 38.8903 35.5188C39.3811 34.325 39.5064 33.0123 39.2504 31.7471C38.9945 30.4819 38.3687 29.3212 37.4525 28.412C36.5363 27.5028 35.3707 26.886 34.1036 26.6397C32.8365 26.3935 31.5249 26.5289 30.3348 27.0288C29.1447 27.5287 28.1298 28.3707 27.4187 29.4479C26.7075 30.5251 26.3321 31.7892 26.34 33.08C26.348 34.8048 27.0401 36.456 28.2644 37.671C29.4887 38.8859 31.1452 39.5653 32.87 39.56Z" fill="#2D2E2E"/>
<path fill-rule="evenodd" clip-rule="evenodd" d="M51.54 25.36L57.71 19.19L54.17 15.66L48 21.83L51.54 25.36Z" fill="#2D2E2E"/>
<path fill-rule="evenodd" clip-rule="evenodd" d="M17.72 21.91L11.42 15.61L7.87 19.14L14.17 25.44L17.72 21.91Z" fill="#2D2E2E"/>
<path fill-rule="evenodd" clip-rule="evenodd" d="M35.36 16.9V9H30.36V16.9H35.36Z" fill="#2D2E2E"/>
<path fill-rule="evenodd" clip-rule="evenodd" d="M60.04 31.89C60.04 31.89 50.33 14.5 32.87 14.5C15.41 14.5 5.67 31.89 5.67 31.89L5 33.08L5.67 34.29C8.39909 38.7733 11.9636 42.6909 16.17 45.83L19.69 42.31C16.173 39.8161 13.1542 36.6855 10.79 33.08C13.09 29.54 20.72 19.49 32.86 19.49C45 19.49 52.62 29.55 54.93 33.08C52.7013 36.4596 49.9031 39.4269 46.66 41.85L50.24 45.29C54.144 42.2451 57.4643 38.5183 60.04 34.29L60.71 33.08L60.04 31.89Z" fill="#2D2E2E"/>
</g>
<defs>
<clipPath id="clip0_2_474">
<rect width="55.72" height="46.35" fill="white" transform="translate(5 9)"/>
</clipPath>
</defs>
</svg>
