<svg width="40" height="40" viewBox="0 0 40 40" fill="none" xmlns="http://www.w3.org/2000/svg" style="margin-right: 24px;"><g clip-path="url(#clip0_638_9608)"><path d="M20.0376 23.8779L5.45889 6.28061C5.43261 6.2496 5.39987 6.22468 5.36294 6.20759C5.32601 6.1905 5.2858 6.18164 5.24509 6.18164C5.20437 6.18164 5.16415 6.1905 5.12722 6.20759C5.09029 6.22468 5.05755 6.2496 5.03127 6.28061C2.94757 8.66363 1.44919 11.498 0.654955 14.559C-0.139284 17.62 -0.207544 20.8235 0.455588 23.9154C1.11872 27.0073 2.495 29.9026 4.47532 32.3718C6.45563 34.8409 8.98551 36.816 11.8644 38.1404C11.9723 35.2819 12.772 32.4919 14.1952 30.0084C15.6184 27.5248 17.6229 25.4215 20.0376 23.8779Z" fill="#2D2AF9"></path><path d="M29.6438 21.0728C26.238 21.067 22.9027 22.0409 20.0378 23.8778L30.9642 37.0675C35.2804 34.4602 38.4779 30.3537 39.942 25.5375C40.0304 25.2472 40.0219 24.9361 39.9177 24.6511C39.8136 24.366 39.6194 24.1224 39.3645 23.9569C36.4753 22.0715 33.0966 21.069 29.6438 21.0728Z" fill="#F20C74"></path><path d="M11.856 38.1316C14.8862 39.5232 18.2119 40.1539 21.5428 39.9684C24.8736 39.7829 28.1083 38.787 30.9643 37.0676L20.038 23.8779C17.6228 25.4197 15.6174 27.5212 14.1927 30.0031C12.7679 32.4851 11.9663 35.2738 11.856 38.1316Z" fill="#00006D"></path><path d="M24.3065 8.5688C26.8075 7.73471 29.1053 6.38671 31.0514 4.61189C31.1428 4.52828 31.2138 4.42495 31.2589 4.30979C31.3041 4.19463 31.3223 4.07069 31.3121 3.94745C31.3019 3.82421 31.2635 3.70494 31.2 3.59873C31.1365 3.49253 31.0495 3.40221 30.9456 3.33469C27.2299 0.906274 22.8209 -0.246095 18.3885 0.0526749C13.9561 0.351445 9.74269 2.08502 6.38841 4.99C6.35693 5.0162 6.3316 5.04897 6.31422 5.08601C6.29685 5.12305 6.28784 5.16344 6.28784 5.20433C6.28784 5.24522 6.29685 5.28561 6.31422 5.32264C6.3316 5.35968 6.35693 5.39246 6.38841 5.41866C8.87758 7.38692 11.8193 8.70563 14.9477 9.25562C18.076 9.80562 21.2925 9.56957 24.3065 8.5688Z" fill="#00006D"></path></g><defs><clipPath id="clip0_638_9608"><rect width="40" height="40" fill="white"></rect></clipPath></defs></svg>