<?xml version="1.0" encoding="UTF-8"?>
<svg width="24px" height="24px" viewBox="0 0 24 24" version="1.1" xmlns="http://www.w3.org/2000/svg" xmlns:xlink="http://www.w3.org/1999/xlink">
    <!-- Generator: Sketch 50.2 (55047) - http://www.bohemiancoding.com/sketch -->
    <title>Parameters</title>
    <desc>Created with Sketch.</desc>
    <defs>
        <path d="M18,16 L17,16 C16.5167508,16 16.125,15.5522847 16.125,15 C16.125,14.4477153 16.5167508,14 17,14 L21.125,14 C21.6082492,14 22,14.4477153 22,15 C22,15.5522847 21.6082492,16 21.125,16 L20,16 L20,19.1428571 C20,19.6162441 19.5522847,20 19,20 C18.4477153,20 18,19.6162441 18,19.1428571 L18,16 Z M11,7 L11,3.85714286 C11,3.38375593 11.4477153,3 12,3 C12.5522847,3 13,3.38375593 13,3.85714286 L13,7 L14,7 C14.4832492,7 14.875,7.44771525 14.875,8 C14.875,8.55228475 14.4832492,9 14,9 L9.875,9 C9.39175084,9 9,8.55228475 9,8 C9,7.44771525 9.39175084,7 9.875,7 L11,7 Z M4,14 L3,14 C2.51675084,14 2.125,13.5522847 2.125,13 C2.125,12.4477153 2.51675084,12 3,12 L7.125,12 C7.60824916,12 8,12.4477153 8,13 C8,13.5522847 7.60824916,14 7.125,14 L6,14 L6,19.1111111 C6,19.6020309 5.55228475,20 5,20 C4.44771525,20 4,19.6020309 4,19.1111111 L4,14 Z M6,10.1111111 C6,10.6020309 5.55228475,11 5,11 C4.44771525,11 4,10.6020309 4,10.1111111 L4,3.88888889 C4,3.39796911 4.44771525,3 5,3 C5.55228475,3 6,3.39796911 6,3.88888889 L6,10.1111111 Z M13,19.1818182 C13,19.6336875 12.5522847,20 12,20 C11.4477153,20 11,19.6336875 11,19.1818182 L11,11.8181818 C11,11.3663125 11.4477153,11 12,11 C12.5522847,11 13,11.3663125 13,11.8181818 L13,19.1818182 Z M20,11.1818182 C20,11.6336875 19.5522847,12 19,12 C18.4477153,12 18,11.6336875 18,11.1818182 L18,3.81818182 C18,3.36631248 18.4477153,3 19,3 C19.5522847,3 20,3.36631248 20,3.81818182 L20,11.1818182 Z" id="path-1"></path>
    </defs>
    <g id="Parameters" stroke="none" stroke-width="1" fill="none" fill-rule="evenodd">
        <mask id="mask-2" fill="white">
            <use xlink:href="#path-1"></use>
        </mask>
        <use id="Combined-Shape" fill="#000000" fill-rule="nonzero" xlink:href="#path-1"></use>
        <g id="Tint/Black" mask="url(#mask-2)">
            <g transform="translate(2.000000, 2.000000)"></g>
        </g>
    </g>
</svg>