<?xml version="1.0" encoding="utf-8"?>
<!-- Generator: Adobe Illustrator 16.0.0, SVG Export Plug-In . SVG Version: 6.00 Build 0)  -->
<!DOCTYPE svg PUBLIC "-//W3C//DTD SVG 1.1//EN" "http://www.w3.org/Graphics/SVG/1.1/DTD/svg11.dtd">
<svg version="1.1" id="Layer_1" xmlns="http://www.w3.org/2000/svg" xmlns:xlink="http://www.w3.org/1999/xlink" x="0px" y="0px"
	 width="3000px" height="3000px" viewBox="0 0 3000 3000" enable-background="new 0 0 3000 3000" xml:space="preserve">
<title>Presto logo</title>
<g>
	<path d="M211.76,1825.824c-38.583,0-74.229-15.579-92.034-30.429v155.865H57.373v-501.755h52.694l5.199,37.115
		c17.075-23.762,57.154-44.54,100.955-44.54c108.352,0,136.555,87.592,136.555,191.502
		C352.776,1749.369,314.183,1825.824,211.76,1825.824z M119.726,1746.404c18.562,14.841,48.243,28.942,83.123,28.942
		c71.995,0,87.583-56.397,87.583-142.493c0-86.105-13.354-140.295-83.123-140.295c-37.115,0-66.786,17.823-87.583,36.376V1746.404
		L119.726,1746.404z M617.001,1501.47c-41.557,8.164-83.87,22.266-115.047,38.602v277.58h-62.344v-368.137h51.216l6.668,43.044
		c22.274-22.256,63.102-43.782,111.344-48.242L617.001,1501.47L617.001,1501.47z M714.974,1661.048
		c3.722,77.933,23.013,115.047,97.981,115.047c39.331,0,80.157-9.659,108.36-20.778l9.65,47.485
		c-30.428,12.615-78.689,22.283-118.759,22.283c-132.861,0-159.587-90.565-159.587-193.728c0-106.126,34.88-189.267,147.711-189.267
		c100.197,0,141.764,70.517,141.764,158.848v60.118H714.974V1661.048z M714.974,1612.075h167.002v-13.372
		c0-68.291-21.518-109.848-82.393-109.848C730.572,1488.855,715.722,1538.585,714.974,1612.075z M1118.738,1825.095
		c-37.114,0-84.618-8.173-116.533-24.51l11.875-48.972c28.203,13.354,69.031,23.013,101.694,23.013
		c48.972,0,74.968-13.372,74.968-54.929c0-39.358-26.726-51.216-76.455-63.101c-80.896-19.292-111.325-47.504-111.325-110.587
		c0-69.039,37.854-103.919,123.94-103.919c35.619,0,73.49,6.686,99.459,18.543l-10.39,49.748
		c-23.004-9.659-58.641-17.823-87.583-17.823c-46.765,0-64.578,12.615-64.578,49.738c0,38.593,17.813,46.018,70.508,60.109
		c71.994,19.301,117.272,42.305,117.272,112.831C1251.59,1792.413,1195.175,1825.095,1118.738,1825.095z M1517.313,1813.948
		c-15.588,5.929-51.964,11.137-75.698,11.137c-63.093,0-89.809-34.897-89.809-92.052v-233.041h-63.831v-50.486h63.831v-89.809
		l62.344-8.902v98.711h104.649l-5.189,50.486h-99.459v230.095c0,34.132,8.164,44.539,42.305,44.539
		c14.85,0,36.367-2.982,55.668-7.442L1517.313,1813.948z M1723.637,1825.095c-106.885,0-155.135-80.158-155.135-191.502
		c0-111.335,48.25-191.503,155.135-191.503c106.875,0,155.125,80.158,155.125,191.503
		C1878.762,1744.927,1830.512,1825.095,1723.637,1825.095z M1723.637,1492.559c-77.193,0-92.791,63.083-92.791,141.034
		c0,77.932,15.598,141.033,92.791,141.033c77.184,0,92.781-63.102,92.781-141.033
		C1816.418,1555.642,1800.82,1492.559,1723.637,1492.559z"/>
	<ellipse fill="#5B87DA" cx="2537.919" cy="1090.998" rx="42.259" ry="42.259"/>
	<ellipse fill="#5B87DA" cx="2654.086" cy="1207.173" rx="46.947" ry="46.947"/>

		<ellipse transform="matrix(-0.7071 -0.7071 0.7071 -0.7071 3793.394 4217.9663)" fill="#5B87DA" cx="2770.25" cy="1323.36" rx="51.626" ry="51.636"/>

		<ellipse transform="matrix(-0.7071 -0.7071 0.7071 -0.7071 3909.4766 4498.1318)" fill="#5B87DA" cx="2886.308" cy="1439.408" rx="56.315" ry="56.323"/>
	<ellipse fill="#1EDCFF" cx="2305.7" cy="1090.998" rx="37.571" ry="37.571"/>
	<ellipse fill="#1EDCFF" cx="2421.865" cy="1207.176" rx="42.26" ry="42.26"/>
	<ellipse fill="#1EDCFF" cx="2537.924" cy="1323.23" rx="46.947" ry="46.947"/>
	<ellipse fill="#1EDCFF" cx="2654.046" cy="1439.342" rx="51.636" ry="51.636"/>

		<ellipse transform="matrix(-0.7071 -0.7071 0.7071 -0.7071 3629.1636 4614.3926)" fill="#1EDCFF" cx="2770.237" cy="1555.585" rx="56.315" ry="56.325"/>
	<ellipse cx="2073.607" cy="1091.132" rx="32.882" ry="32.882"/>
	<ellipse cx="2189.595" cy="1207.103" rx="37.571" ry="37.571"/>
	<ellipse cx="2305.818" cy="1323.357" rx="42.259" ry="42.259"/>
	<ellipse cx="2421.924" cy="1439.459" rx="46.947" ry="46.947"/>

		<ellipse transform="matrix(-0.7071 -0.7071 0.7071 -0.7071 3232.7944 4450.2061)" cx="2538.03" cy="1555.595" rx="51.627" ry="51.635"/>

		<ellipse transform="matrix(-0.7071 -0.7071 0.7071 -0.7071 3348.8352 4730.2148)" cx="2654.052" cy="1671.559" rx="56.315" ry="56.324"/>
	<g>
		<ellipse fill="#5B87DA" cx="2305.717" cy="1555.418" rx="37.57" ry="37.57"/>
		<ellipse fill="#5B87DA" cx="2189.618" cy="1671.521" rx="37.571" ry="37.571"/>
		<ellipse fill="#5B87DA" cx="2073.547" cy="1787.714" rx="37.57" ry="37.57"/>
		<ellipse fill="#5B87DA" cx="2305.729" cy="1787.648" rx="37.571" ry="37.571"/>
		<ellipse fill="#5B87DA" cx="2537.971" cy="1787.735" rx="37.57" ry="37.57"/>
		<ellipse fill="#5B87DA" cx="2421.819" cy="1671.518" rx="37.571" ry="37.571"/>
	</g>
</g>
</svg>
