<?xml version="1.0" encoding="UTF-8"?>
<svg width="24px" height="24px" viewBox="0 0 24 24" version="1.1" xmlns="http://www.w3.org/2000/svg" xmlns:xlink="http://www.w3.org/1999/xlink">
    <!-- Generator: Sketch 50.2 (55047) - http://www.bohemiancoding.com/sketch -->
    <title>Preview-Fillled</title>
    <desc>Created with Sketch.</desc>
    <defs>
        <path d="M2.12210443,11.5211479 C2.24177844,11.3017455 2.46286377,10.9414583 2.78336984,10.4865465 C3.31200459,9.73622618 3.93535882,8.98683858 4.6531551,8.28499333 C6.74195958,6.24260673 9.19893197,5 12,5 C14.801068,5 17.2580404,6.24260673 19.3468449,8.28499333 C20.0646412,8.98683858 20.6879954,9.73622618 21.2166302,10.4865465 C21.5371362,10.9414583 21.7582216,11.3017455 21.8778956,11.5211479 C22.0407015,11.8196254 22.0407015,12.1803746 21.8778956,12.4788521 C21.7582216,12.6982545 21.5371362,13.0585417 21.2166302,13.5134535 C20.6879954,14.2637738 20.0646412,15.0131614 19.3468449,15.7150067 C17.2580404,17.7573933 14.801068,19 12,19 C9.19893197,19 6.74195958,17.7573933 4.6531551,15.7150067 C3.93535882,15.0131614 3.31200459,14.2637738 2.78336984,13.5134535 C2.46286377,13.0585417 2.24177844,12.6982545 2.12210443,12.4788521 C1.95929852,12.1803746 1.95929852,11.8196254 2.12210443,11.5211479 Z M12,15 C13.6568542,15 15,13.6568542 15,12 C15,10.3431458 13.6568542,9 12,9 C10.3431458,9 9,10.3431458 9,12 C9,13.6568542 10.3431458,15 12,15 Z M12,13 C11.4477153,13 11,12.5522847 11,12 C11,11.4477153 11.4477153,11 12,11 C12.5522847,11 13,11.4477153 13,12 C13,12.5522847 12.5522847,13 12,13 Z" id="path-1"></path>
    </defs>
    <g id="Preview-Fillled" stroke="none" stroke-width="1" fill="none" fill-rule="evenodd">
        <mask id="mask-2" fill="white">
            <use xlink:href="#path-1"></use>
        </mask>
        <use id="Combined-Shape" fill="#000000" fill-rule="nonzero" xlink:href="#path-1"></use>
        <g id="Tint/Black" mask="url(#mask-2)"></g>
        <g id="eye" mask="url(#mask-2)">
            <g transform="translate(3.000000, 6.000000)"></g>
        </g>
    </g>
</svg>