<svg xmlns="http://www.w3.org/2000/svg" viewBox="0 0 256 256"><defs><style>.cls-1{fill:#2d2e2e;}</style></defs><g id="Layer_2" data-name="Layer 2"><g id="Layer_1-2" data-name="Layer 1"><path class="cls-1" d="M128,256A128,128,0,1,1,256,128,128.14,128.14,0,0,1,128,256Zm0-239.48A111.48,111.48,0,1,0,239.48,128,111.59,111.59,0,0,0,128,16.52Z"/><path class="cls-1" d="M128.5,113.45c-.17,0-.33-.09-.5-.09a14.6,14.6,0,0,0-14,18.94l13.43,10.24c.17,0,.34.08.51.08a14.6,14.6,0,0,0,13.93-19Z"/><path class="cls-1" d="M136.83,116.34a14.51,14.51,0,0,0-8.33-2.89l13.41,10.13A14.58,14.58,0,0,0,136.83,116.34Z"/><path class="cls-1" d="M179,58.24l-65.56,41a1.65,1.65,0,0,0-.12,2.71l2.5,1.89A26.92,26.92,0,0,1,154.41,133l2.61,2a1.65,1.65,0,0,0,2.58-.85l21.87-74A1.65,1.65,0,0,0,179,58.24Z"/><path class="cls-1" d="M111.65,149.51a27,27,0,0,1-10.07-26.71l-2.57-2a1.65,1.65,0,0,0-2.59.84l-21.9,74.17A1.65,1.65,0,0,0,77,197.72l65.45-41a1.65,1.65,0,0,0,.13-2.71l-2.47-1.89a27.06,27.06,0,0,1-28.44-2.65Z"/><path class="cls-1" d="M119.14,139.64a14.47,14.47,0,0,0,8.33,2.9L114,132.3A14.54,14.54,0,0,0,119.14,139.64Z"/><path class="cls-1" d="M127.47,142.54c.17,0,.34.08.51.08a14.59,14.59,0,0,0,.52-29.17c-.17,0-.33-.09-.5-.09a14.59,14.59,0,0,0-.53,29.18Z"/></g></g></svg>